M48
; DRILL file {KiCad 9.0.6} date 2025-12-31T00:23:11+0530
; FORMAT={-:-/ absolute / metric / decimal}
; #@! TF.CreationDate,2025-12-31T00:23:11+05:30
; #@! TF.GenerationSoftware,Kicad,Pcbnew,9.0.6
; #@! TF.FileFunction,Plated,1,2,PTH
FMAT,2
METRIC
; #@! TA.AperFunction,Plated,PTH,ViaDrill
T1C0.300
; #@! TA.AperFunction,Plated,PTH,ComponentDrill
T2C1.000
%
G90
G05
T1
X112.55Y-86.95
X112.6Y-77.9
X114.7Y-77.9
X115.55Y-86.95
X121.5Y-73.0
X122.8Y-59.55
X124.85Y-91.05
X130.4Y-75.2
X131.55Y-61.0
X131.95Y-57.05
X137.85Y-70.25
X138.45Y-72.9
X138.85Y-70.25
X140.588Y-63.65
X145.45Y-61.9
X145.55Y-66.25
X145.7Y-91.7
X146.3Y-85.3
X146.65Y-91.7
X147.75Y-89.15
T2
X113.08Y-95.7
X115.62Y-95.7
X118.16Y-95.7
X120.7Y-95.7
X128.01Y-95.7
X130.55Y-95.7
X137.625Y-55.4
X140.165Y-55.4
M30
