%TF.GenerationSoftware,KiCad,Pcbnew,9.0.6*%
%TF.CreationDate,2025-12-31T00:22:08+05:30*%
%TF.ProjectId,c16qs-carrier-board,63313671-732d-4636-9172-726965722d62,rev?*%
%TF.SameCoordinates,Original*%
%TF.FileFunction,Legend,Top*%
%TF.FilePolarity,Positive*%
%FSLAX46Y46*%
G04 Gerber Fmt 4.6, Leading zero omitted, Abs format (unit mm)*
G04 Created by KiCad (PCBNEW 9.0.6) date 2025-12-31 00:22:08*
%MOMM*%
%LPD*%
G01*
G04 APERTURE LIST*
%ADD10C,0.200000*%
%ADD11C,0.150000*%
%ADD12C,0.100000*%
%ADD13C,0.120000*%
G04 APERTURE END LIST*
D10*
X113305387Y-57467219D02*
X113305387Y-58181504D01*
X113305387Y-58181504D02*
X113257768Y-58324361D01*
X113257768Y-58324361D02*
X113162530Y-58419600D01*
X113162530Y-58419600D02*
X113019673Y-58467219D01*
X113019673Y-58467219D02*
X112924435Y-58467219D01*
X113543483Y-58562457D02*
X114305387Y-58562457D01*
X114495864Y-58419600D02*
X114638721Y-58467219D01*
X114638721Y-58467219D02*
X114876816Y-58467219D01*
X114876816Y-58467219D02*
X114972054Y-58419600D01*
X114972054Y-58419600D02*
X115019673Y-58371980D01*
X115019673Y-58371980D02*
X115067292Y-58276742D01*
X115067292Y-58276742D02*
X115067292Y-58181504D01*
X115067292Y-58181504D02*
X115019673Y-58086266D01*
X115019673Y-58086266D02*
X114972054Y-58038647D01*
X114972054Y-58038647D02*
X114876816Y-57991028D01*
X114876816Y-57991028D02*
X114686340Y-57943409D01*
X114686340Y-57943409D02*
X114591102Y-57895790D01*
X114591102Y-57895790D02*
X114543483Y-57848171D01*
X114543483Y-57848171D02*
X114495864Y-57752933D01*
X114495864Y-57752933D02*
X114495864Y-57657695D01*
X114495864Y-57657695D02*
X114543483Y-57562457D01*
X114543483Y-57562457D02*
X114591102Y-57514838D01*
X114591102Y-57514838D02*
X114686340Y-57467219D01*
X114686340Y-57467219D02*
X114924435Y-57467219D01*
X114924435Y-57467219D02*
X115067292Y-57514838D01*
X115495864Y-58467219D02*
X115495864Y-57467219D01*
X115972054Y-58467219D02*
X115972054Y-57467219D01*
X115972054Y-57467219D02*
X116305387Y-58181504D01*
X116305387Y-58181504D02*
X116638720Y-57467219D01*
X116638720Y-57467219D02*
X116638720Y-58467219D01*
X117638720Y-58467219D02*
X117067292Y-58467219D01*
X117353006Y-58467219D02*
X117353006Y-57467219D01*
X117353006Y-57467219D02*
X117257768Y-57610076D01*
X117257768Y-57610076D02*
X117162530Y-57705314D01*
X117162530Y-57705314D02*
X117067292Y-57752933D01*
D11*
X115335363Y-67333332D02*
X115287744Y-67285713D01*
X115287744Y-67285713D02*
X115240124Y-67142856D01*
X115240124Y-67142856D02*
X115240124Y-67047618D01*
X115240124Y-67047618D02*
X115287744Y-66904761D01*
X115287744Y-66904761D02*
X115382982Y-66809523D01*
X115382982Y-66809523D02*
X115478220Y-66761904D01*
X115478220Y-66761904D02*
X115668696Y-66714285D01*
X115668696Y-66714285D02*
X115811553Y-66714285D01*
X115811553Y-66714285D02*
X116002029Y-66761904D01*
X116002029Y-66761904D02*
X116097267Y-66809523D01*
X116097267Y-66809523D02*
X116192505Y-66904761D01*
X116192505Y-66904761D02*
X116240124Y-67047618D01*
X116240124Y-67047618D02*
X116240124Y-67142856D01*
X116240124Y-67142856D02*
X116192505Y-67285713D01*
X116192505Y-67285713D02*
X116144886Y-67333332D01*
X115240124Y-68285713D02*
X115240124Y-67714285D01*
X115240124Y-67999999D02*
X116240124Y-67999999D01*
X116240124Y-67999999D02*
X116097267Y-67904761D01*
X116097267Y-67904761D02*
X116002029Y-67809523D01*
X116002029Y-67809523D02*
X115954410Y-67714285D01*
X116240124Y-69142856D02*
X116240124Y-68952380D01*
X116240124Y-68952380D02*
X116192505Y-68857142D01*
X116192505Y-68857142D02*
X116144886Y-68809523D01*
X116144886Y-68809523D02*
X116002029Y-68714285D01*
X116002029Y-68714285D02*
X115811553Y-68666666D01*
X115811553Y-68666666D02*
X115430601Y-68666666D01*
X115430601Y-68666666D02*
X115335363Y-68714285D01*
X115335363Y-68714285D02*
X115287744Y-68761904D01*
X115287744Y-68761904D02*
X115240124Y-68857142D01*
X115240124Y-68857142D02*
X115240124Y-69047618D01*
X115240124Y-69047618D02*
X115287744Y-69142856D01*
X115287744Y-69142856D02*
X115335363Y-69190475D01*
X115335363Y-69190475D02*
X115430601Y-69238094D01*
X115430601Y-69238094D02*
X115668696Y-69238094D01*
X115668696Y-69238094D02*
X115763934Y-69190475D01*
X115763934Y-69190475D02*
X115811553Y-69142856D01*
X115811553Y-69142856D02*
X115859172Y-69047618D01*
X115859172Y-69047618D02*
X115859172Y-68857142D01*
X115859172Y-68857142D02*
X115811553Y-68761904D01*
X115811553Y-68761904D02*
X115763934Y-68714285D01*
X115763934Y-68714285D02*
X115668696Y-68666666D01*
X115144886Y-70333332D02*
X115192505Y-70238094D01*
X115192505Y-70238094D02*
X115287744Y-70142856D01*
X115287744Y-70142856D02*
X115430601Y-69999999D01*
X115430601Y-69999999D02*
X115478220Y-69904761D01*
X115478220Y-69904761D02*
X115478220Y-69809523D01*
X115240124Y-69857142D02*
X115287744Y-69761904D01*
X115287744Y-69761904D02*
X115382982Y-69666666D01*
X115382982Y-69666666D02*
X115573458Y-69619047D01*
X115573458Y-69619047D02*
X115906791Y-69619047D01*
X115906791Y-69619047D02*
X116097267Y-69666666D01*
X116097267Y-69666666D02*
X116192505Y-69761904D01*
X116192505Y-69761904D02*
X116240124Y-69857142D01*
X116240124Y-69857142D02*
X116240124Y-70047618D01*
X116240124Y-70047618D02*
X116192505Y-70142856D01*
X116192505Y-70142856D02*
X116097267Y-70238094D01*
X116097267Y-70238094D02*
X115906791Y-70285713D01*
X115906791Y-70285713D02*
X115573458Y-70285713D01*
X115573458Y-70285713D02*
X115382982Y-70238094D01*
X115382982Y-70238094D02*
X115287744Y-70142856D01*
X115287744Y-70142856D02*
X115240124Y-70047618D01*
X115240124Y-70047618D02*
X115240124Y-69857142D01*
X115287744Y-70666666D02*
X115240124Y-70809523D01*
X115240124Y-70809523D02*
X115240124Y-71047618D01*
X115240124Y-71047618D02*
X115287744Y-71142856D01*
X115287744Y-71142856D02*
X115335363Y-71190475D01*
X115335363Y-71190475D02*
X115430601Y-71238094D01*
X115430601Y-71238094D02*
X115525839Y-71238094D01*
X115525839Y-71238094D02*
X115621077Y-71190475D01*
X115621077Y-71190475D02*
X115668696Y-71142856D01*
X115668696Y-71142856D02*
X115716315Y-71047618D01*
X115716315Y-71047618D02*
X115763934Y-70857142D01*
X115763934Y-70857142D02*
X115811553Y-70761904D01*
X115811553Y-70761904D02*
X115859172Y-70714285D01*
X115859172Y-70714285D02*
X115954410Y-70666666D01*
X115954410Y-70666666D02*
X116049648Y-70666666D01*
X116049648Y-70666666D02*
X116144886Y-70714285D01*
X116144886Y-70714285D02*
X116192505Y-70761904D01*
X116192505Y-70761904D02*
X116240124Y-70857142D01*
X116240124Y-70857142D02*
X116240124Y-71095237D01*
X116240124Y-71095237D02*
X116192505Y-71238094D01*
X115621077Y-71666666D02*
X115621077Y-72428571D01*
X115240124Y-72904761D02*
X116240124Y-72904761D01*
X116240124Y-72904761D02*
X115525839Y-73238094D01*
X115525839Y-73238094D02*
X116240124Y-73571427D01*
X116240124Y-73571427D02*
X115240124Y-73571427D01*
X115906791Y-74476189D02*
X115240124Y-74476189D01*
X115906791Y-74047618D02*
X115382982Y-74047618D01*
X115382982Y-74047618D02*
X115287744Y-74095237D01*
X115287744Y-74095237D02*
X115240124Y-74190475D01*
X115240124Y-74190475D02*
X115240124Y-74333332D01*
X115240124Y-74333332D02*
X115287744Y-74428570D01*
X115287744Y-74428570D02*
X115335363Y-74476189D01*
X115287744Y-74904761D02*
X115240124Y-74999999D01*
X115240124Y-74999999D02*
X115240124Y-75190475D01*
X115240124Y-75190475D02*
X115287744Y-75285713D01*
X115287744Y-75285713D02*
X115382982Y-75333332D01*
X115382982Y-75333332D02*
X115430601Y-75333332D01*
X115430601Y-75333332D02*
X115525839Y-75285713D01*
X115525839Y-75285713D02*
X115573458Y-75190475D01*
X115573458Y-75190475D02*
X115573458Y-75047618D01*
X115573458Y-75047618D02*
X115621077Y-74952380D01*
X115621077Y-74952380D02*
X115716315Y-74904761D01*
X115716315Y-74904761D02*
X115763934Y-74904761D01*
X115763934Y-74904761D02*
X115859172Y-74952380D01*
X115859172Y-74952380D02*
X115906791Y-75047618D01*
X115906791Y-75047618D02*
X115906791Y-75190475D01*
X115906791Y-75190475D02*
X115859172Y-75285713D01*
X115906791Y-75619047D02*
X115906791Y-75999999D01*
X116240124Y-75761904D02*
X115382982Y-75761904D01*
X115382982Y-75761904D02*
X115287744Y-75809523D01*
X115287744Y-75809523D02*
X115240124Y-75904761D01*
X115240124Y-75904761D02*
X115240124Y-75999999D01*
X115240124Y-76761904D02*
X115763934Y-76761904D01*
X115763934Y-76761904D02*
X115859172Y-76714285D01*
X115859172Y-76714285D02*
X115906791Y-76619047D01*
X115906791Y-76619047D02*
X115906791Y-76428571D01*
X115906791Y-76428571D02*
X115859172Y-76333333D01*
X115287744Y-76761904D02*
X115240124Y-76666666D01*
X115240124Y-76666666D02*
X115240124Y-76428571D01*
X115240124Y-76428571D02*
X115287744Y-76333333D01*
X115287744Y-76333333D02*
X115382982Y-76285714D01*
X115382982Y-76285714D02*
X115478220Y-76285714D01*
X115478220Y-76285714D02*
X115573458Y-76333333D01*
X115573458Y-76333333D02*
X115621077Y-76428571D01*
X115621077Y-76428571D02*
X115621077Y-76666666D01*
X115621077Y-76666666D02*
X115668696Y-76761904D01*
X115906791Y-77095238D02*
X115906791Y-77476190D01*
X115240124Y-77238095D02*
X116097267Y-77238095D01*
X116097267Y-77238095D02*
X116192505Y-77285714D01*
X116192505Y-77285714D02*
X116240124Y-77380952D01*
X116240124Y-77380952D02*
X116240124Y-77476190D01*
X115240124Y-78238095D02*
X115763934Y-78238095D01*
X115763934Y-78238095D02*
X115859172Y-78190476D01*
X115859172Y-78190476D02*
X115906791Y-78095238D01*
X115906791Y-78095238D02*
X115906791Y-77904762D01*
X115906791Y-77904762D02*
X115859172Y-77809524D01*
X115287744Y-78238095D02*
X115240124Y-78142857D01*
X115240124Y-78142857D02*
X115240124Y-77904762D01*
X115240124Y-77904762D02*
X115287744Y-77809524D01*
X115287744Y-77809524D02*
X115382982Y-77761905D01*
X115382982Y-77761905D02*
X115478220Y-77761905D01*
X115478220Y-77761905D02*
X115573458Y-77809524D01*
X115573458Y-77809524D02*
X115621077Y-77904762D01*
X115621077Y-77904762D02*
X115621077Y-78142857D01*
X115621077Y-78142857D02*
X115668696Y-78238095D01*
X114630180Y-71690476D02*
X113630180Y-72023809D01*
X113630180Y-72023809D02*
X114630180Y-72357142D01*
X114534942Y-72642857D02*
X114582561Y-72690476D01*
X114582561Y-72690476D02*
X114630180Y-72785714D01*
X114630180Y-72785714D02*
X114630180Y-73023809D01*
X114630180Y-73023809D02*
X114582561Y-73119047D01*
X114582561Y-73119047D02*
X114534942Y-73166666D01*
X114534942Y-73166666D02*
X114439704Y-73214285D01*
X114439704Y-73214285D02*
X114344466Y-73214285D01*
X114344466Y-73214285D02*
X114201609Y-73166666D01*
X114201609Y-73166666D02*
X113630180Y-72595238D01*
X113630180Y-72595238D02*
X113630180Y-73214285D01*
X124607142Y-92704819D02*
X124273809Y-92228628D01*
X124035714Y-92704819D02*
X124035714Y-91704819D01*
X124035714Y-91704819D02*
X124416666Y-91704819D01*
X124416666Y-91704819D02*
X124511904Y-91752438D01*
X124511904Y-91752438D02*
X124559523Y-91800057D01*
X124559523Y-91800057D02*
X124607142Y-91895295D01*
X124607142Y-91895295D02*
X124607142Y-92038152D01*
X124607142Y-92038152D02*
X124559523Y-92133390D01*
X124559523Y-92133390D02*
X124511904Y-92181009D01*
X124511904Y-92181009D02*
X124416666Y-92228628D01*
X124416666Y-92228628D02*
X124035714Y-92228628D01*
X125559523Y-92704819D02*
X124988095Y-92704819D01*
X125273809Y-92704819D02*
X125273809Y-91704819D01*
X125273809Y-91704819D02*
X125178571Y-91847676D01*
X125178571Y-91847676D02*
X125083333Y-91942914D01*
X125083333Y-91942914D02*
X124988095Y-91990533D01*
X126511904Y-92704819D02*
X125940476Y-92704819D01*
X126226190Y-92704819D02*
X126226190Y-91704819D01*
X126226190Y-91704819D02*
X126130952Y-91847676D01*
X126130952Y-91847676D02*
X126035714Y-91942914D01*
X126035714Y-91942914D02*
X125940476Y-91990533D01*
X133859580Y-57942857D02*
X133907200Y-57990476D01*
X133907200Y-57990476D02*
X133954819Y-58133333D01*
X133954819Y-58133333D02*
X133954819Y-58228571D01*
X133954819Y-58228571D02*
X133907200Y-58371428D01*
X133907200Y-58371428D02*
X133811961Y-58466666D01*
X133811961Y-58466666D02*
X133716723Y-58514285D01*
X133716723Y-58514285D02*
X133526247Y-58561904D01*
X133526247Y-58561904D02*
X133383390Y-58561904D01*
X133383390Y-58561904D02*
X133192914Y-58514285D01*
X133192914Y-58514285D02*
X133097676Y-58466666D01*
X133097676Y-58466666D02*
X133002438Y-58371428D01*
X133002438Y-58371428D02*
X132954819Y-58228571D01*
X132954819Y-58228571D02*
X132954819Y-58133333D01*
X132954819Y-58133333D02*
X133002438Y-57990476D01*
X133002438Y-57990476D02*
X133050057Y-57942857D01*
X133954819Y-56990476D02*
X133954819Y-57561904D01*
X133954819Y-57276190D02*
X132954819Y-57276190D01*
X132954819Y-57276190D02*
X133097676Y-57371428D01*
X133097676Y-57371428D02*
X133192914Y-57466666D01*
X133192914Y-57466666D02*
X133240533Y-57561904D01*
X132954819Y-56371428D02*
X132954819Y-56276190D01*
X132954819Y-56276190D02*
X133002438Y-56180952D01*
X133002438Y-56180952D02*
X133050057Y-56133333D01*
X133050057Y-56133333D02*
X133145295Y-56085714D01*
X133145295Y-56085714D02*
X133335771Y-56038095D01*
X133335771Y-56038095D02*
X133573866Y-56038095D01*
X133573866Y-56038095D02*
X133764342Y-56085714D01*
X133764342Y-56085714D02*
X133859580Y-56133333D01*
X133859580Y-56133333D02*
X133907200Y-56180952D01*
X133907200Y-56180952D02*
X133954819Y-56276190D01*
X133954819Y-56276190D02*
X133954819Y-56371428D01*
X133954819Y-56371428D02*
X133907200Y-56466666D01*
X133907200Y-56466666D02*
X133859580Y-56514285D01*
X133859580Y-56514285D02*
X133764342Y-56561904D01*
X133764342Y-56561904D02*
X133573866Y-56609523D01*
X133573866Y-56609523D02*
X133335771Y-56609523D01*
X133335771Y-56609523D02*
X133145295Y-56561904D01*
X133145295Y-56561904D02*
X133050057Y-56514285D01*
X133050057Y-56514285D02*
X133002438Y-56466666D01*
X133002438Y-56466666D02*
X132954819Y-56371428D01*
X115854819Y-89542857D02*
X115378628Y-89876190D01*
X115854819Y-90114285D02*
X114854819Y-90114285D01*
X114854819Y-90114285D02*
X114854819Y-89733333D01*
X114854819Y-89733333D02*
X114902438Y-89638095D01*
X114902438Y-89638095D02*
X114950057Y-89590476D01*
X114950057Y-89590476D02*
X115045295Y-89542857D01*
X115045295Y-89542857D02*
X115188152Y-89542857D01*
X115188152Y-89542857D02*
X115283390Y-89590476D01*
X115283390Y-89590476D02*
X115331009Y-89638095D01*
X115331009Y-89638095D02*
X115378628Y-89733333D01*
X115378628Y-89733333D02*
X115378628Y-90114285D01*
X115854819Y-88590476D02*
X115854819Y-89161904D01*
X115854819Y-88876190D02*
X114854819Y-88876190D01*
X114854819Y-88876190D02*
X114997676Y-88971428D01*
X114997676Y-88971428D02*
X115092914Y-89066666D01*
X115092914Y-89066666D02*
X115140533Y-89161904D01*
X114854819Y-87971428D02*
X114854819Y-87876190D01*
X114854819Y-87876190D02*
X114902438Y-87780952D01*
X114902438Y-87780952D02*
X114950057Y-87733333D01*
X114950057Y-87733333D02*
X115045295Y-87685714D01*
X115045295Y-87685714D02*
X115235771Y-87638095D01*
X115235771Y-87638095D02*
X115473866Y-87638095D01*
X115473866Y-87638095D02*
X115664342Y-87685714D01*
X115664342Y-87685714D02*
X115759580Y-87733333D01*
X115759580Y-87733333D02*
X115807200Y-87780952D01*
X115807200Y-87780952D02*
X115854819Y-87876190D01*
X115854819Y-87876190D02*
X115854819Y-87971428D01*
X115854819Y-87971428D02*
X115807200Y-88066666D01*
X115807200Y-88066666D02*
X115759580Y-88114285D01*
X115759580Y-88114285D02*
X115664342Y-88161904D01*
X115664342Y-88161904D02*
X115473866Y-88209523D01*
X115473866Y-88209523D02*
X115235771Y-88209523D01*
X115235771Y-88209523D02*
X115045295Y-88161904D01*
X115045295Y-88161904D02*
X114950057Y-88114285D01*
X114950057Y-88114285D02*
X114902438Y-88066666D01*
X114902438Y-88066666D02*
X114854819Y-87971428D01*
X139559580Y-65566666D02*
X139607200Y-65614285D01*
X139607200Y-65614285D02*
X139654819Y-65757142D01*
X139654819Y-65757142D02*
X139654819Y-65852380D01*
X139654819Y-65852380D02*
X139607200Y-65995237D01*
X139607200Y-65995237D02*
X139511961Y-66090475D01*
X139511961Y-66090475D02*
X139416723Y-66138094D01*
X139416723Y-66138094D02*
X139226247Y-66185713D01*
X139226247Y-66185713D02*
X139083390Y-66185713D01*
X139083390Y-66185713D02*
X138892914Y-66138094D01*
X138892914Y-66138094D02*
X138797676Y-66090475D01*
X138797676Y-66090475D02*
X138702438Y-65995237D01*
X138702438Y-65995237D02*
X138654819Y-65852380D01*
X138654819Y-65852380D02*
X138654819Y-65757142D01*
X138654819Y-65757142D02*
X138702438Y-65614285D01*
X138702438Y-65614285D02*
X138750057Y-65566666D01*
X138654819Y-64709523D02*
X138654819Y-64899999D01*
X138654819Y-64899999D02*
X138702438Y-64995237D01*
X138702438Y-64995237D02*
X138750057Y-65042856D01*
X138750057Y-65042856D02*
X138892914Y-65138094D01*
X138892914Y-65138094D02*
X139083390Y-65185713D01*
X139083390Y-65185713D02*
X139464342Y-65185713D01*
X139464342Y-65185713D02*
X139559580Y-65138094D01*
X139559580Y-65138094D02*
X139607200Y-65090475D01*
X139607200Y-65090475D02*
X139654819Y-64995237D01*
X139654819Y-64995237D02*
X139654819Y-64804761D01*
X139654819Y-64804761D02*
X139607200Y-64709523D01*
X139607200Y-64709523D02*
X139559580Y-64661904D01*
X139559580Y-64661904D02*
X139464342Y-64614285D01*
X139464342Y-64614285D02*
X139226247Y-64614285D01*
X139226247Y-64614285D02*
X139131009Y-64661904D01*
X139131009Y-64661904D02*
X139083390Y-64709523D01*
X139083390Y-64709523D02*
X139035771Y-64804761D01*
X139035771Y-64804761D02*
X139035771Y-64995237D01*
X139035771Y-64995237D02*
X139083390Y-65090475D01*
X139083390Y-65090475D02*
X139131009Y-65138094D01*
X139131009Y-65138094D02*
X139226247Y-65185713D01*
X147283333Y-83504819D02*
X146950000Y-83028628D01*
X146711905Y-83504819D02*
X146711905Y-82504819D01*
X146711905Y-82504819D02*
X147092857Y-82504819D01*
X147092857Y-82504819D02*
X147188095Y-82552438D01*
X147188095Y-82552438D02*
X147235714Y-82600057D01*
X147235714Y-82600057D02*
X147283333Y-82695295D01*
X147283333Y-82695295D02*
X147283333Y-82838152D01*
X147283333Y-82838152D02*
X147235714Y-82933390D01*
X147235714Y-82933390D02*
X147188095Y-82981009D01*
X147188095Y-82981009D02*
X147092857Y-83028628D01*
X147092857Y-83028628D02*
X146711905Y-83028628D01*
X147664286Y-82600057D02*
X147711905Y-82552438D01*
X147711905Y-82552438D02*
X147807143Y-82504819D01*
X147807143Y-82504819D02*
X148045238Y-82504819D01*
X148045238Y-82504819D02*
X148140476Y-82552438D01*
X148140476Y-82552438D02*
X148188095Y-82600057D01*
X148188095Y-82600057D02*
X148235714Y-82695295D01*
X148235714Y-82695295D02*
X148235714Y-82790533D01*
X148235714Y-82790533D02*
X148188095Y-82933390D01*
X148188095Y-82933390D02*
X147616667Y-83504819D01*
X147616667Y-83504819D02*
X148235714Y-83504819D01*
X146133333Y-89659580D02*
X146085714Y-89707200D01*
X146085714Y-89707200D02*
X145942857Y-89754819D01*
X145942857Y-89754819D02*
X145847619Y-89754819D01*
X145847619Y-89754819D02*
X145704762Y-89707200D01*
X145704762Y-89707200D02*
X145609524Y-89611961D01*
X145609524Y-89611961D02*
X145561905Y-89516723D01*
X145561905Y-89516723D02*
X145514286Y-89326247D01*
X145514286Y-89326247D02*
X145514286Y-89183390D01*
X145514286Y-89183390D02*
X145561905Y-88992914D01*
X145561905Y-88992914D02*
X145609524Y-88897676D01*
X145609524Y-88897676D02*
X145704762Y-88802438D01*
X145704762Y-88802438D02*
X145847619Y-88754819D01*
X145847619Y-88754819D02*
X145942857Y-88754819D01*
X145942857Y-88754819D02*
X146085714Y-88802438D01*
X146085714Y-88802438D02*
X146133333Y-88850057D01*
X146609524Y-89754819D02*
X146800000Y-89754819D01*
X146800000Y-89754819D02*
X146895238Y-89707200D01*
X146895238Y-89707200D02*
X146942857Y-89659580D01*
X146942857Y-89659580D02*
X147038095Y-89516723D01*
X147038095Y-89516723D02*
X147085714Y-89326247D01*
X147085714Y-89326247D02*
X147085714Y-88945295D01*
X147085714Y-88945295D02*
X147038095Y-88850057D01*
X147038095Y-88850057D02*
X146990476Y-88802438D01*
X146990476Y-88802438D02*
X146895238Y-88754819D01*
X146895238Y-88754819D02*
X146704762Y-88754819D01*
X146704762Y-88754819D02*
X146609524Y-88802438D01*
X146609524Y-88802438D02*
X146561905Y-88850057D01*
X146561905Y-88850057D02*
X146514286Y-88945295D01*
X146514286Y-88945295D02*
X146514286Y-89183390D01*
X146514286Y-89183390D02*
X146561905Y-89278628D01*
X146561905Y-89278628D02*
X146609524Y-89326247D01*
X146609524Y-89326247D02*
X146704762Y-89373866D01*
X146704762Y-89373866D02*
X146895238Y-89373866D01*
X146895238Y-89373866D02*
X146990476Y-89326247D01*
X146990476Y-89326247D02*
X147038095Y-89278628D01*
X147038095Y-89278628D02*
X147085714Y-89183390D01*
X134554819Y-55083333D02*
X135269104Y-55083333D01*
X135269104Y-55083333D02*
X135411961Y-55130952D01*
X135411961Y-55130952D02*
X135507200Y-55226190D01*
X135507200Y-55226190D02*
X135554819Y-55369047D01*
X135554819Y-55369047D02*
X135554819Y-55464285D01*
X135554819Y-54083333D02*
X135554819Y-54654761D01*
X135554819Y-54369047D02*
X134554819Y-54369047D01*
X134554819Y-54369047D02*
X134697676Y-54464285D01*
X134697676Y-54464285D02*
X134792914Y-54559523D01*
X134792914Y-54559523D02*
X134840533Y-54654761D01*
X128941666Y-92654819D02*
X128941666Y-93369104D01*
X128941666Y-93369104D02*
X128894047Y-93511961D01*
X128894047Y-93511961D02*
X128798809Y-93607200D01*
X128798809Y-93607200D02*
X128655952Y-93654819D01*
X128655952Y-93654819D02*
X128560714Y-93654819D01*
X129370238Y-92750057D02*
X129417857Y-92702438D01*
X129417857Y-92702438D02*
X129513095Y-92654819D01*
X129513095Y-92654819D02*
X129751190Y-92654819D01*
X129751190Y-92654819D02*
X129846428Y-92702438D01*
X129846428Y-92702438D02*
X129894047Y-92750057D01*
X129894047Y-92750057D02*
X129941666Y-92845295D01*
X129941666Y-92845295D02*
X129941666Y-92940533D01*
X129941666Y-92940533D02*
X129894047Y-93083390D01*
X129894047Y-93083390D02*
X129322619Y-93654819D01*
X129322619Y-93654819D02*
X129941666Y-93654819D01*
X145159580Y-60816666D02*
X145207200Y-60864285D01*
X145207200Y-60864285D02*
X145254819Y-61007142D01*
X145254819Y-61007142D02*
X145254819Y-61102380D01*
X145254819Y-61102380D02*
X145207200Y-61245237D01*
X145207200Y-61245237D02*
X145111961Y-61340475D01*
X145111961Y-61340475D02*
X145016723Y-61388094D01*
X145016723Y-61388094D02*
X144826247Y-61435713D01*
X144826247Y-61435713D02*
X144683390Y-61435713D01*
X144683390Y-61435713D02*
X144492914Y-61388094D01*
X144492914Y-61388094D02*
X144397676Y-61340475D01*
X144397676Y-61340475D02*
X144302438Y-61245237D01*
X144302438Y-61245237D02*
X144254819Y-61102380D01*
X144254819Y-61102380D02*
X144254819Y-61007142D01*
X144254819Y-61007142D02*
X144302438Y-60864285D01*
X144302438Y-60864285D02*
X144350057Y-60816666D01*
X144254819Y-60483332D02*
X144254819Y-59816666D01*
X144254819Y-59816666D02*
X145254819Y-60245237D01*
X138183333Y-59479819D02*
X137850000Y-59003628D01*
X137611905Y-59479819D02*
X137611905Y-58479819D01*
X137611905Y-58479819D02*
X137992857Y-58479819D01*
X137992857Y-58479819D02*
X138088095Y-58527438D01*
X138088095Y-58527438D02*
X138135714Y-58575057D01*
X138135714Y-58575057D02*
X138183333Y-58670295D01*
X138183333Y-58670295D02*
X138183333Y-58813152D01*
X138183333Y-58813152D02*
X138135714Y-58908390D01*
X138135714Y-58908390D02*
X138088095Y-58956009D01*
X138088095Y-58956009D02*
X137992857Y-59003628D01*
X137992857Y-59003628D02*
X137611905Y-59003628D01*
X139040476Y-58813152D02*
X139040476Y-59479819D01*
X138802381Y-58432200D02*
X138564286Y-59146485D01*
X138564286Y-59146485D02*
X139183333Y-59146485D01*
X147833333Y-73459580D02*
X147785714Y-73507200D01*
X147785714Y-73507200D02*
X147642857Y-73554819D01*
X147642857Y-73554819D02*
X147547619Y-73554819D01*
X147547619Y-73554819D02*
X147404762Y-73507200D01*
X147404762Y-73507200D02*
X147309524Y-73411961D01*
X147309524Y-73411961D02*
X147261905Y-73316723D01*
X147261905Y-73316723D02*
X147214286Y-73126247D01*
X147214286Y-73126247D02*
X147214286Y-72983390D01*
X147214286Y-72983390D02*
X147261905Y-72792914D01*
X147261905Y-72792914D02*
X147309524Y-72697676D01*
X147309524Y-72697676D02*
X147404762Y-72602438D01*
X147404762Y-72602438D02*
X147547619Y-72554819D01*
X147547619Y-72554819D02*
X147642857Y-72554819D01*
X147642857Y-72554819D02*
X147785714Y-72602438D01*
X147785714Y-72602438D02*
X147833333Y-72650057D01*
X148690476Y-72888152D02*
X148690476Y-73554819D01*
X148452381Y-72507200D02*
X148214286Y-73221485D01*
X148214286Y-73221485D02*
X148833333Y-73221485D01*
X137404819Y-66111904D02*
X138214342Y-66111904D01*
X138214342Y-66111904D02*
X138309580Y-66064285D01*
X138309580Y-66064285D02*
X138357200Y-66016666D01*
X138357200Y-66016666D02*
X138404819Y-65921428D01*
X138404819Y-65921428D02*
X138404819Y-65730952D01*
X138404819Y-65730952D02*
X138357200Y-65635714D01*
X138357200Y-65635714D02*
X138309580Y-65588095D01*
X138309580Y-65588095D02*
X138214342Y-65540476D01*
X138214342Y-65540476D02*
X137404819Y-65540476D01*
X137404819Y-65159523D02*
X137404819Y-64540476D01*
X137404819Y-64540476D02*
X137785771Y-64873809D01*
X137785771Y-64873809D02*
X137785771Y-64730952D01*
X137785771Y-64730952D02*
X137833390Y-64635714D01*
X137833390Y-64635714D02*
X137881009Y-64588095D01*
X137881009Y-64588095D02*
X137976247Y-64540476D01*
X137976247Y-64540476D02*
X138214342Y-64540476D01*
X138214342Y-64540476D02*
X138309580Y-64588095D01*
X138309580Y-64588095D02*
X138357200Y-64635714D01*
X138357200Y-64635714D02*
X138404819Y-64730952D01*
X138404819Y-64730952D02*
X138404819Y-65016666D01*
X138404819Y-65016666D02*
X138357200Y-65111904D01*
X138357200Y-65111904D02*
X138309580Y-65159523D01*
X148133333Y-94654819D02*
X147800000Y-94178628D01*
X147561905Y-94654819D02*
X147561905Y-93654819D01*
X147561905Y-93654819D02*
X147942857Y-93654819D01*
X147942857Y-93654819D02*
X148038095Y-93702438D01*
X148038095Y-93702438D02*
X148085714Y-93750057D01*
X148085714Y-93750057D02*
X148133333Y-93845295D01*
X148133333Y-93845295D02*
X148133333Y-93988152D01*
X148133333Y-93988152D02*
X148085714Y-94083390D01*
X148085714Y-94083390D02*
X148038095Y-94131009D01*
X148038095Y-94131009D02*
X147942857Y-94178628D01*
X147942857Y-94178628D02*
X147561905Y-94178628D01*
X149038095Y-93654819D02*
X148561905Y-93654819D01*
X148561905Y-93654819D02*
X148514286Y-94131009D01*
X148514286Y-94131009D02*
X148561905Y-94083390D01*
X148561905Y-94083390D02*
X148657143Y-94035771D01*
X148657143Y-94035771D02*
X148895238Y-94035771D01*
X148895238Y-94035771D02*
X148990476Y-94083390D01*
X148990476Y-94083390D02*
X149038095Y-94131009D01*
X149038095Y-94131009D02*
X149085714Y-94226247D01*
X149085714Y-94226247D02*
X149085714Y-94464342D01*
X149085714Y-94464342D02*
X149038095Y-94559580D01*
X149038095Y-94559580D02*
X148990476Y-94607200D01*
X148990476Y-94607200D02*
X148895238Y-94654819D01*
X148895238Y-94654819D02*
X148657143Y-94654819D01*
X148657143Y-94654819D02*
X148561905Y-94607200D01*
X148561905Y-94607200D02*
X148514286Y-94559580D01*
X145183333Y-83454819D02*
X144850000Y-82978628D01*
X144611905Y-83454819D02*
X144611905Y-82454819D01*
X144611905Y-82454819D02*
X144992857Y-82454819D01*
X144992857Y-82454819D02*
X145088095Y-82502438D01*
X145088095Y-82502438D02*
X145135714Y-82550057D01*
X145135714Y-82550057D02*
X145183333Y-82645295D01*
X145183333Y-82645295D02*
X145183333Y-82788152D01*
X145183333Y-82788152D02*
X145135714Y-82883390D01*
X145135714Y-82883390D02*
X145088095Y-82931009D01*
X145088095Y-82931009D02*
X144992857Y-82978628D01*
X144992857Y-82978628D02*
X144611905Y-82978628D01*
X146135714Y-83454819D02*
X145564286Y-83454819D01*
X145850000Y-83454819D02*
X145850000Y-82454819D01*
X145850000Y-82454819D02*
X145754762Y-82597676D01*
X145754762Y-82597676D02*
X145659524Y-82692914D01*
X145659524Y-82692914D02*
X145564286Y-82740533D01*
X148054819Y-64266666D02*
X148054819Y-64742856D01*
X148054819Y-64742856D02*
X147054819Y-64742856D01*
X148054819Y-63409523D02*
X148054819Y-63980951D01*
X148054819Y-63695237D02*
X147054819Y-63695237D01*
X147054819Y-63695237D02*
X147197676Y-63790475D01*
X147197676Y-63790475D02*
X147292914Y-63885713D01*
X147292914Y-63885713D02*
X147340533Y-63980951D01*
X121492261Y-91050057D02*
X121397023Y-91002438D01*
X121397023Y-91002438D02*
X121301785Y-90907200D01*
X121301785Y-90907200D02*
X121158928Y-90764342D01*
X121158928Y-90764342D02*
X121063690Y-90716723D01*
X121063690Y-90716723D02*
X120968452Y-90716723D01*
X121016071Y-90954819D02*
X120920833Y-90907200D01*
X120920833Y-90907200D02*
X120825595Y-90811961D01*
X120825595Y-90811961D02*
X120777976Y-90621485D01*
X120777976Y-90621485D02*
X120777976Y-90288152D01*
X120777976Y-90288152D02*
X120825595Y-90097676D01*
X120825595Y-90097676D02*
X120920833Y-90002438D01*
X120920833Y-90002438D02*
X121016071Y-89954819D01*
X121016071Y-89954819D02*
X121206547Y-89954819D01*
X121206547Y-89954819D02*
X121301785Y-90002438D01*
X121301785Y-90002438D02*
X121397023Y-90097676D01*
X121397023Y-90097676D02*
X121444642Y-90288152D01*
X121444642Y-90288152D02*
X121444642Y-90621485D01*
X121444642Y-90621485D02*
X121397023Y-90811961D01*
X121397023Y-90811961D02*
X121301785Y-90907200D01*
X121301785Y-90907200D02*
X121206547Y-90954819D01*
X121206547Y-90954819D02*
X121016071Y-90954819D01*
X122397023Y-90954819D02*
X121825595Y-90954819D01*
X122111309Y-90954819D02*
X122111309Y-89954819D01*
X122111309Y-89954819D02*
X122016071Y-90097676D01*
X122016071Y-90097676D02*
X121920833Y-90192914D01*
X121920833Y-90192914D02*
X121825595Y-90240533D01*
X129833333Y-65454819D02*
X129500000Y-64978628D01*
X129261905Y-65454819D02*
X129261905Y-64454819D01*
X129261905Y-64454819D02*
X129642857Y-64454819D01*
X129642857Y-64454819D02*
X129738095Y-64502438D01*
X129738095Y-64502438D02*
X129785714Y-64550057D01*
X129785714Y-64550057D02*
X129833333Y-64645295D01*
X129833333Y-64645295D02*
X129833333Y-64788152D01*
X129833333Y-64788152D02*
X129785714Y-64883390D01*
X129785714Y-64883390D02*
X129738095Y-64931009D01*
X129738095Y-64931009D02*
X129642857Y-64978628D01*
X129642857Y-64978628D02*
X129261905Y-64978628D01*
X130309524Y-65454819D02*
X130500000Y-65454819D01*
X130500000Y-65454819D02*
X130595238Y-65407200D01*
X130595238Y-65407200D02*
X130642857Y-65359580D01*
X130642857Y-65359580D02*
X130738095Y-65216723D01*
X130738095Y-65216723D02*
X130785714Y-65026247D01*
X130785714Y-65026247D02*
X130785714Y-64645295D01*
X130785714Y-64645295D02*
X130738095Y-64550057D01*
X130738095Y-64550057D02*
X130690476Y-64502438D01*
X130690476Y-64502438D02*
X130595238Y-64454819D01*
X130595238Y-64454819D02*
X130404762Y-64454819D01*
X130404762Y-64454819D02*
X130309524Y-64502438D01*
X130309524Y-64502438D02*
X130261905Y-64550057D01*
X130261905Y-64550057D02*
X130214286Y-64645295D01*
X130214286Y-64645295D02*
X130214286Y-64883390D01*
X130214286Y-64883390D02*
X130261905Y-64978628D01*
X130261905Y-64978628D02*
X130309524Y-65026247D01*
X130309524Y-65026247D02*
X130404762Y-65073866D01*
X130404762Y-65073866D02*
X130595238Y-65073866D01*
X130595238Y-65073866D02*
X130690476Y-65026247D01*
X130690476Y-65026247D02*
X130738095Y-64978628D01*
X130738095Y-64978628D02*
X130785714Y-64883390D01*
X129833333Y-57454819D02*
X129500000Y-56978628D01*
X129261905Y-57454819D02*
X129261905Y-56454819D01*
X129261905Y-56454819D02*
X129642857Y-56454819D01*
X129642857Y-56454819D02*
X129738095Y-56502438D01*
X129738095Y-56502438D02*
X129785714Y-56550057D01*
X129785714Y-56550057D02*
X129833333Y-56645295D01*
X129833333Y-56645295D02*
X129833333Y-56788152D01*
X129833333Y-56788152D02*
X129785714Y-56883390D01*
X129785714Y-56883390D02*
X129738095Y-56931009D01*
X129738095Y-56931009D02*
X129642857Y-56978628D01*
X129642857Y-56978628D02*
X129261905Y-56978628D01*
X130166667Y-56454819D02*
X130833333Y-56454819D01*
X130833333Y-56454819D02*
X130404762Y-57454819D01*
X136459580Y-61241666D02*
X136507200Y-61289285D01*
X136507200Y-61289285D02*
X136554819Y-61432142D01*
X136554819Y-61432142D02*
X136554819Y-61527380D01*
X136554819Y-61527380D02*
X136507200Y-61670237D01*
X136507200Y-61670237D02*
X136411961Y-61765475D01*
X136411961Y-61765475D02*
X136316723Y-61813094D01*
X136316723Y-61813094D02*
X136126247Y-61860713D01*
X136126247Y-61860713D02*
X135983390Y-61860713D01*
X135983390Y-61860713D02*
X135792914Y-61813094D01*
X135792914Y-61813094D02*
X135697676Y-61765475D01*
X135697676Y-61765475D02*
X135602438Y-61670237D01*
X135602438Y-61670237D02*
X135554819Y-61527380D01*
X135554819Y-61527380D02*
X135554819Y-61432142D01*
X135554819Y-61432142D02*
X135602438Y-61289285D01*
X135602438Y-61289285D02*
X135650057Y-61241666D01*
X135554819Y-60336904D02*
X135554819Y-60813094D01*
X135554819Y-60813094D02*
X136031009Y-60860713D01*
X136031009Y-60860713D02*
X135983390Y-60813094D01*
X135983390Y-60813094D02*
X135935771Y-60717856D01*
X135935771Y-60717856D02*
X135935771Y-60479761D01*
X135935771Y-60479761D02*
X135983390Y-60384523D01*
X135983390Y-60384523D02*
X136031009Y-60336904D01*
X136031009Y-60336904D02*
X136126247Y-60289285D01*
X136126247Y-60289285D02*
X136364342Y-60289285D01*
X136364342Y-60289285D02*
X136459580Y-60336904D01*
X136459580Y-60336904D02*
X136507200Y-60384523D01*
X136507200Y-60384523D02*
X136554819Y-60479761D01*
X136554819Y-60479761D02*
X136554819Y-60717856D01*
X136554819Y-60717856D02*
X136507200Y-60813094D01*
X136507200Y-60813094D02*
X136459580Y-60860713D01*
X147833333Y-70409580D02*
X147785714Y-70457200D01*
X147785714Y-70457200D02*
X147642857Y-70504819D01*
X147642857Y-70504819D02*
X147547619Y-70504819D01*
X147547619Y-70504819D02*
X147404762Y-70457200D01*
X147404762Y-70457200D02*
X147309524Y-70361961D01*
X147309524Y-70361961D02*
X147261905Y-70266723D01*
X147261905Y-70266723D02*
X147214286Y-70076247D01*
X147214286Y-70076247D02*
X147214286Y-69933390D01*
X147214286Y-69933390D02*
X147261905Y-69742914D01*
X147261905Y-69742914D02*
X147309524Y-69647676D01*
X147309524Y-69647676D02*
X147404762Y-69552438D01*
X147404762Y-69552438D02*
X147547619Y-69504819D01*
X147547619Y-69504819D02*
X147642857Y-69504819D01*
X147642857Y-69504819D02*
X147785714Y-69552438D01*
X147785714Y-69552438D02*
X147833333Y-69600057D01*
X148214286Y-69600057D02*
X148261905Y-69552438D01*
X148261905Y-69552438D02*
X148357143Y-69504819D01*
X148357143Y-69504819D02*
X148595238Y-69504819D01*
X148595238Y-69504819D02*
X148690476Y-69552438D01*
X148690476Y-69552438D02*
X148738095Y-69600057D01*
X148738095Y-69600057D02*
X148785714Y-69695295D01*
X148785714Y-69695295D02*
X148785714Y-69790533D01*
X148785714Y-69790533D02*
X148738095Y-69933390D01*
X148738095Y-69933390D02*
X148166667Y-70504819D01*
X148166667Y-70504819D02*
X148785714Y-70504819D01*
X112607142Y-79504819D02*
X112607142Y-80219104D01*
X112607142Y-80219104D02*
X112559523Y-80361961D01*
X112559523Y-80361961D02*
X112464285Y-80457200D01*
X112464285Y-80457200D02*
X112321428Y-80504819D01*
X112321428Y-80504819D02*
X112226190Y-80504819D01*
X112845238Y-80600057D02*
X113607142Y-80600057D01*
X114416666Y-80504819D02*
X114083333Y-80028628D01*
X113845238Y-80504819D02*
X113845238Y-79504819D01*
X113845238Y-79504819D02*
X114226190Y-79504819D01*
X114226190Y-79504819D02*
X114321428Y-79552438D01*
X114321428Y-79552438D02*
X114369047Y-79600057D01*
X114369047Y-79600057D02*
X114416666Y-79695295D01*
X114416666Y-79695295D02*
X114416666Y-79838152D01*
X114416666Y-79838152D02*
X114369047Y-79933390D01*
X114369047Y-79933390D02*
X114321428Y-79981009D01*
X114321428Y-79981009D02*
X114226190Y-80028628D01*
X114226190Y-80028628D02*
X113845238Y-80028628D01*
X115178571Y-79981009D02*
X114845238Y-79981009D01*
X114845238Y-80504819D02*
X114845238Y-79504819D01*
X114845238Y-79504819D02*
X115321428Y-79504819D01*
X116226190Y-80504819D02*
X115654762Y-80504819D01*
X115940476Y-80504819D02*
X115940476Y-79504819D01*
X115940476Y-79504819D02*
X115845238Y-79647676D01*
X115845238Y-79647676D02*
X115750000Y-79742914D01*
X115750000Y-79742914D02*
X115654762Y-79790533D01*
X132454819Y-63738094D02*
X131454819Y-63738094D01*
X131454819Y-63738094D02*
X131454819Y-63499999D01*
X131454819Y-63499999D02*
X131502438Y-63357142D01*
X131502438Y-63357142D02*
X131597676Y-63261904D01*
X131597676Y-63261904D02*
X131692914Y-63214285D01*
X131692914Y-63214285D02*
X131883390Y-63166666D01*
X131883390Y-63166666D02*
X132026247Y-63166666D01*
X132026247Y-63166666D02*
X132216723Y-63214285D01*
X132216723Y-63214285D02*
X132311961Y-63261904D01*
X132311961Y-63261904D02*
X132407200Y-63357142D01*
X132407200Y-63357142D02*
X132454819Y-63499999D01*
X132454819Y-63499999D02*
X132454819Y-63738094D01*
X131454819Y-62833332D02*
X131454819Y-62214285D01*
X131454819Y-62214285D02*
X131835771Y-62547618D01*
X131835771Y-62547618D02*
X131835771Y-62404761D01*
X131835771Y-62404761D02*
X131883390Y-62309523D01*
X131883390Y-62309523D02*
X131931009Y-62261904D01*
X131931009Y-62261904D02*
X132026247Y-62214285D01*
X132026247Y-62214285D02*
X132264342Y-62214285D01*
X132264342Y-62214285D02*
X132359580Y-62261904D01*
X132359580Y-62261904D02*
X132407200Y-62309523D01*
X132407200Y-62309523D02*
X132454819Y-62404761D01*
X132454819Y-62404761D02*
X132454819Y-62690475D01*
X132454819Y-62690475D02*
X132407200Y-62785713D01*
X132407200Y-62785713D02*
X132359580Y-62833332D01*
X132738095Y-93454819D02*
X133309523Y-93454819D01*
X133023809Y-94454819D02*
X133023809Y-93454819D01*
X133642857Y-94454819D02*
X133642857Y-93454819D01*
X133642857Y-93454819D02*
X134023809Y-93454819D01*
X134023809Y-93454819D02*
X134119047Y-93502438D01*
X134119047Y-93502438D02*
X134166666Y-93550057D01*
X134166666Y-93550057D02*
X134214285Y-93645295D01*
X134214285Y-93645295D02*
X134214285Y-93788152D01*
X134214285Y-93788152D02*
X134166666Y-93883390D01*
X134166666Y-93883390D02*
X134119047Y-93931009D01*
X134119047Y-93931009D02*
X134023809Y-93978628D01*
X134023809Y-93978628D02*
X133642857Y-93978628D01*
X134595238Y-93550057D02*
X134642857Y-93502438D01*
X134642857Y-93502438D02*
X134738095Y-93454819D01*
X134738095Y-93454819D02*
X134976190Y-93454819D01*
X134976190Y-93454819D02*
X135071428Y-93502438D01*
X135071428Y-93502438D02*
X135119047Y-93550057D01*
X135119047Y-93550057D02*
X135166666Y-93645295D01*
X135166666Y-93645295D02*
X135166666Y-93740533D01*
X135166666Y-93740533D02*
X135119047Y-93883390D01*
X135119047Y-93883390D02*
X134547619Y-94454819D01*
X134547619Y-94454819D02*
X135166666Y-94454819D01*
X136041904Y-93229819D02*
X136041904Y-94039342D01*
X136041904Y-94039342D02*
X136089523Y-94134580D01*
X136089523Y-94134580D02*
X136137142Y-94182200D01*
X136137142Y-94182200D02*
X136232380Y-94229819D01*
X136232380Y-94229819D02*
X136422856Y-94229819D01*
X136422856Y-94229819D02*
X136518094Y-94182200D01*
X136518094Y-94182200D02*
X136565713Y-94134580D01*
X136565713Y-94134580D02*
X136613332Y-94039342D01*
X136613332Y-94039342D02*
X136613332Y-93229819D01*
X136851428Y-94325057D02*
X137613332Y-94325057D01*
X137851428Y-93229819D02*
X137851428Y-94039342D01*
X137851428Y-94039342D02*
X137899047Y-94134580D01*
X137899047Y-94134580D02*
X137946666Y-94182200D01*
X137946666Y-94182200D02*
X138041904Y-94229819D01*
X138041904Y-94229819D02*
X138232380Y-94229819D01*
X138232380Y-94229819D02*
X138327618Y-94182200D01*
X138327618Y-94182200D02*
X138375237Y-94134580D01*
X138375237Y-94134580D02*
X138422856Y-94039342D01*
X138422856Y-94039342D02*
X138422856Y-93229819D01*
X138851428Y-93944104D02*
X139327618Y-93944104D01*
X138756190Y-94229819D02*
X139089523Y-93229819D01*
X139089523Y-93229819D02*
X139422856Y-94229819D01*
X140327618Y-94229819D02*
X139994285Y-93753628D01*
X139756190Y-94229819D02*
X139756190Y-93229819D01*
X139756190Y-93229819D02*
X140137142Y-93229819D01*
X140137142Y-93229819D02*
X140232380Y-93277438D01*
X140232380Y-93277438D02*
X140279999Y-93325057D01*
X140279999Y-93325057D02*
X140327618Y-93420295D01*
X140327618Y-93420295D02*
X140327618Y-93563152D01*
X140327618Y-93563152D02*
X140279999Y-93658390D01*
X140279999Y-93658390D02*
X140232380Y-93706009D01*
X140232380Y-93706009D02*
X140137142Y-93753628D01*
X140137142Y-93753628D02*
X139756190Y-93753628D01*
X140613333Y-93229819D02*
X141184761Y-93229819D01*
X140899047Y-94229819D02*
X140899047Y-93229819D01*
X141280000Y-94325057D02*
X142041904Y-94325057D01*
X142756190Y-94229819D02*
X142280000Y-94229819D01*
X142280000Y-94229819D02*
X142280000Y-93229819D01*
X143041905Y-94182200D02*
X143184762Y-94229819D01*
X143184762Y-94229819D02*
X143422857Y-94229819D01*
X143422857Y-94229819D02*
X143518095Y-94182200D01*
X143518095Y-94182200D02*
X143565714Y-94134580D01*
X143565714Y-94134580D02*
X143613333Y-94039342D01*
X143613333Y-94039342D02*
X143613333Y-93944104D01*
X143613333Y-93944104D02*
X143565714Y-93848866D01*
X143565714Y-93848866D02*
X143518095Y-93801247D01*
X143518095Y-93801247D02*
X143422857Y-93753628D01*
X143422857Y-93753628D02*
X143232381Y-93706009D01*
X143232381Y-93706009D02*
X143137143Y-93658390D01*
X143137143Y-93658390D02*
X143089524Y-93610771D01*
X143089524Y-93610771D02*
X143041905Y-93515533D01*
X143041905Y-93515533D02*
X143041905Y-93420295D01*
X143041905Y-93420295D02*
X143089524Y-93325057D01*
X143089524Y-93325057D02*
X143137143Y-93277438D01*
X143137143Y-93277438D02*
X143232381Y-93229819D01*
X143232381Y-93229819D02*
X143470476Y-93229819D01*
X143470476Y-93229819D02*
X143613333Y-93277438D01*
X144565714Y-94229819D02*
X143994286Y-94229819D01*
X144280000Y-94229819D02*
X144280000Y-93229819D01*
X144280000Y-93229819D02*
X144184762Y-93372676D01*
X144184762Y-93372676D02*
X144089524Y-93467914D01*
X144089524Y-93467914D02*
X143994286Y-93515533D01*
X148133333Y-93204819D02*
X147800000Y-92728628D01*
X147561905Y-93204819D02*
X147561905Y-92204819D01*
X147561905Y-92204819D02*
X147942857Y-92204819D01*
X147942857Y-92204819D02*
X148038095Y-92252438D01*
X148038095Y-92252438D02*
X148085714Y-92300057D01*
X148085714Y-92300057D02*
X148133333Y-92395295D01*
X148133333Y-92395295D02*
X148133333Y-92538152D01*
X148133333Y-92538152D02*
X148085714Y-92633390D01*
X148085714Y-92633390D02*
X148038095Y-92681009D01*
X148038095Y-92681009D02*
X147942857Y-92728628D01*
X147942857Y-92728628D02*
X147561905Y-92728628D01*
X148990476Y-92204819D02*
X148800000Y-92204819D01*
X148800000Y-92204819D02*
X148704762Y-92252438D01*
X148704762Y-92252438D02*
X148657143Y-92300057D01*
X148657143Y-92300057D02*
X148561905Y-92442914D01*
X148561905Y-92442914D02*
X148514286Y-92633390D01*
X148514286Y-92633390D02*
X148514286Y-93014342D01*
X148514286Y-93014342D02*
X148561905Y-93109580D01*
X148561905Y-93109580D02*
X148609524Y-93157200D01*
X148609524Y-93157200D02*
X148704762Y-93204819D01*
X148704762Y-93204819D02*
X148895238Y-93204819D01*
X148895238Y-93204819D02*
X148990476Y-93157200D01*
X148990476Y-93157200D02*
X149038095Y-93109580D01*
X149038095Y-93109580D02*
X149085714Y-93014342D01*
X149085714Y-93014342D02*
X149085714Y-92776247D01*
X149085714Y-92776247D02*
X149038095Y-92681009D01*
X149038095Y-92681009D02*
X148990476Y-92633390D01*
X148990476Y-92633390D02*
X148895238Y-92585771D01*
X148895238Y-92585771D02*
X148704762Y-92585771D01*
X148704762Y-92585771D02*
X148609524Y-92633390D01*
X148609524Y-92633390D02*
X148561905Y-92681009D01*
X148561905Y-92681009D02*
X148514286Y-92776247D01*
X146909580Y-87116666D02*
X146957200Y-87164285D01*
X146957200Y-87164285D02*
X147004819Y-87307142D01*
X147004819Y-87307142D02*
X147004819Y-87402380D01*
X147004819Y-87402380D02*
X146957200Y-87545237D01*
X146957200Y-87545237D02*
X146861961Y-87640475D01*
X146861961Y-87640475D02*
X146766723Y-87688094D01*
X146766723Y-87688094D02*
X146576247Y-87735713D01*
X146576247Y-87735713D02*
X146433390Y-87735713D01*
X146433390Y-87735713D02*
X146242914Y-87688094D01*
X146242914Y-87688094D02*
X146147676Y-87640475D01*
X146147676Y-87640475D02*
X146052438Y-87545237D01*
X146052438Y-87545237D02*
X146004819Y-87402380D01*
X146004819Y-87402380D02*
X146004819Y-87307142D01*
X146004819Y-87307142D02*
X146052438Y-87164285D01*
X146052438Y-87164285D02*
X146100057Y-87116666D01*
X146433390Y-86545237D02*
X146385771Y-86640475D01*
X146385771Y-86640475D02*
X146338152Y-86688094D01*
X146338152Y-86688094D02*
X146242914Y-86735713D01*
X146242914Y-86735713D02*
X146195295Y-86735713D01*
X146195295Y-86735713D02*
X146100057Y-86688094D01*
X146100057Y-86688094D02*
X146052438Y-86640475D01*
X146052438Y-86640475D02*
X146004819Y-86545237D01*
X146004819Y-86545237D02*
X146004819Y-86354761D01*
X146004819Y-86354761D02*
X146052438Y-86259523D01*
X146052438Y-86259523D02*
X146100057Y-86211904D01*
X146100057Y-86211904D02*
X146195295Y-86164285D01*
X146195295Y-86164285D02*
X146242914Y-86164285D01*
X146242914Y-86164285D02*
X146338152Y-86211904D01*
X146338152Y-86211904D02*
X146385771Y-86259523D01*
X146385771Y-86259523D02*
X146433390Y-86354761D01*
X146433390Y-86354761D02*
X146433390Y-86545237D01*
X146433390Y-86545237D02*
X146481009Y-86640475D01*
X146481009Y-86640475D02*
X146528628Y-86688094D01*
X146528628Y-86688094D02*
X146623866Y-86735713D01*
X146623866Y-86735713D02*
X146814342Y-86735713D01*
X146814342Y-86735713D02*
X146909580Y-86688094D01*
X146909580Y-86688094D02*
X146957200Y-86640475D01*
X146957200Y-86640475D02*
X147004819Y-86545237D01*
X147004819Y-86545237D02*
X147004819Y-86354761D01*
X147004819Y-86354761D02*
X146957200Y-86259523D01*
X146957200Y-86259523D02*
X146909580Y-86211904D01*
X146909580Y-86211904D02*
X146814342Y-86164285D01*
X146814342Y-86164285D02*
X146623866Y-86164285D01*
X146623866Y-86164285D02*
X146528628Y-86211904D01*
X146528628Y-86211904D02*
X146481009Y-86259523D01*
X146481009Y-86259523D02*
X146433390Y-86354761D01*
X140483333Y-59479819D02*
X140150000Y-59003628D01*
X139911905Y-59479819D02*
X139911905Y-58479819D01*
X139911905Y-58479819D02*
X140292857Y-58479819D01*
X140292857Y-58479819D02*
X140388095Y-58527438D01*
X140388095Y-58527438D02*
X140435714Y-58575057D01*
X140435714Y-58575057D02*
X140483333Y-58670295D01*
X140483333Y-58670295D02*
X140483333Y-58813152D01*
X140483333Y-58813152D02*
X140435714Y-58908390D01*
X140435714Y-58908390D02*
X140388095Y-58956009D01*
X140388095Y-58956009D02*
X140292857Y-59003628D01*
X140292857Y-59003628D02*
X139911905Y-59003628D01*
X140816667Y-58479819D02*
X141435714Y-58479819D01*
X141435714Y-58479819D02*
X141102381Y-58860771D01*
X141102381Y-58860771D02*
X141245238Y-58860771D01*
X141245238Y-58860771D02*
X141340476Y-58908390D01*
X141340476Y-58908390D02*
X141388095Y-58956009D01*
X141388095Y-58956009D02*
X141435714Y-59051247D01*
X141435714Y-59051247D02*
X141435714Y-59289342D01*
X141435714Y-59289342D02*
X141388095Y-59384580D01*
X141388095Y-59384580D02*
X141340476Y-59432200D01*
X141340476Y-59432200D02*
X141245238Y-59479819D01*
X141245238Y-59479819D02*
X140959524Y-59479819D01*
X140959524Y-59479819D02*
X140864286Y-59432200D01*
X140864286Y-59432200D02*
X140816667Y-59384580D01*
X147833333Y-71909580D02*
X147785714Y-71957200D01*
X147785714Y-71957200D02*
X147642857Y-72004819D01*
X147642857Y-72004819D02*
X147547619Y-72004819D01*
X147547619Y-72004819D02*
X147404762Y-71957200D01*
X147404762Y-71957200D02*
X147309524Y-71861961D01*
X147309524Y-71861961D02*
X147261905Y-71766723D01*
X147261905Y-71766723D02*
X147214286Y-71576247D01*
X147214286Y-71576247D02*
X147214286Y-71433390D01*
X147214286Y-71433390D02*
X147261905Y-71242914D01*
X147261905Y-71242914D02*
X147309524Y-71147676D01*
X147309524Y-71147676D02*
X147404762Y-71052438D01*
X147404762Y-71052438D02*
X147547619Y-71004819D01*
X147547619Y-71004819D02*
X147642857Y-71004819D01*
X147642857Y-71004819D02*
X147785714Y-71052438D01*
X147785714Y-71052438D02*
X147833333Y-71100057D01*
X148166667Y-71004819D02*
X148785714Y-71004819D01*
X148785714Y-71004819D02*
X148452381Y-71385771D01*
X148452381Y-71385771D02*
X148595238Y-71385771D01*
X148595238Y-71385771D02*
X148690476Y-71433390D01*
X148690476Y-71433390D02*
X148738095Y-71481009D01*
X148738095Y-71481009D02*
X148785714Y-71576247D01*
X148785714Y-71576247D02*
X148785714Y-71814342D01*
X148785714Y-71814342D02*
X148738095Y-71909580D01*
X148738095Y-71909580D02*
X148690476Y-71957200D01*
X148690476Y-71957200D02*
X148595238Y-72004819D01*
X148595238Y-72004819D02*
X148309524Y-72004819D01*
X148309524Y-72004819D02*
X148214286Y-71957200D01*
X148214286Y-71957200D02*
X148166667Y-71909580D01*
X149004819Y-56811904D02*
X149004819Y-56240476D01*
X150004819Y-56526190D02*
X149004819Y-56526190D01*
X150004819Y-55907142D02*
X149004819Y-55907142D01*
X149004819Y-55907142D02*
X149004819Y-55526190D01*
X149004819Y-55526190D02*
X149052438Y-55430952D01*
X149052438Y-55430952D02*
X149100057Y-55383333D01*
X149100057Y-55383333D02*
X149195295Y-55335714D01*
X149195295Y-55335714D02*
X149338152Y-55335714D01*
X149338152Y-55335714D02*
X149433390Y-55383333D01*
X149433390Y-55383333D02*
X149481009Y-55430952D01*
X149481009Y-55430952D02*
X149528628Y-55526190D01*
X149528628Y-55526190D02*
X149528628Y-55907142D01*
X149338152Y-54478571D02*
X150004819Y-54478571D01*
X148957200Y-54716666D02*
X149671485Y-54954761D01*
X149671485Y-54954761D02*
X149671485Y-54335714D01*
X129783333Y-61454819D02*
X129450000Y-60978628D01*
X129211905Y-61454819D02*
X129211905Y-60454819D01*
X129211905Y-60454819D02*
X129592857Y-60454819D01*
X129592857Y-60454819D02*
X129688095Y-60502438D01*
X129688095Y-60502438D02*
X129735714Y-60550057D01*
X129735714Y-60550057D02*
X129783333Y-60645295D01*
X129783333Y-60645295D02*
X129783333Y-60788152D01*
X129783333Y-60788152D02*
X129735714Y-60883390D01*
X129735714Y-60883390D02*
X129688095Y-60931009D01*
X129688095Y-60931009D02*
X129592857Y-60978628D01*
X129592857Y-60978628D02*
X129211905Y-60978628D01*
X130354762Y-60883390D02*
X130259524Y-60835771D01*
X130259524Y-60835771D02*
X130211905Y-60788152D01*
X130211905Y-60788152D02*
X130164286Y-60692914D01*
X130164286Y-60692914D02*
X130164286Y-60645295D01*
X130164286Y-60645295D02*
X130211905Y-60550057D01*
X130211905Y-60550057D02*
X130259524Y-60502438D01*
X130259524Y-60502438D02*
X130354762Y-60454819D01*
X130354762Y-60454819D02*
X130545238Y-60454819D01*
X130545238Y-60454819D02*
X130640476Y-60502438D01*
X130640476Y-60502438D02*
X130688095Y-60550057D01*
X130688095Y-60550057D02*
X130735714Y-60645295D01*
X130735714Y-60645295D02*
X130735714Y-60692914D01*
X130735714Y-60692914D02*
X130688095Y-60788152D01*
X130688095Y-60788152D02*
X130640476Y-60835771D01*
X130640476Y-60835771D02*
X130545238Y-60883390D01*
X130545238Y-60883390D02*
X130354762Y-60883390D01*
X130354762Y-60883390D02*
X130259524Y-60931009D01*
X130259524Y-60931009D02*
X130211905Y-60978628D01*
X130211905Y-60978628D02*
X130164286Y-61073866D01*
X130164286Y-61073866D02*
X130164286Y-61264342D01*
X130164286Y-61264342D02*
X130211905Y-61359580D01*
X130211905Y-61359580D02*
X130259524Y-61407200D01*
X130259524Y-61407200D02*
X130354762Y-61454819D01*
X130354762Y-61454819D02*
X130545238Y-61454819D01*
X130545238Y-61454819D02*
X130640476Y-61407200D01*
X130640476Y-61407200D02*
X130688095Y-61359580D01*
X130688095Y-61359580D02*
X130735714Y-61264342D01*
X130735714Y-61264342D02*
X130735714Y-61073866D01*
X130735714Y-61073866D02*
X130688095Y-60978628D01*
X130688095Y-60978628D02*
X130640476Y-60931009D01*
X130640476Y-60931009D02*
X130545238Y-60883390D01*
X114054819Y-89988094D02*
X113054819Y-89988094D01*
X113054819Y-89988094D02*
X113054819Y-89749999D01*
X113054819Y-89749999D02*
X113102438Y-89607142D01*
X113102438Y-89607142D02*
X113197676Y-89511904D01*
X113197676Y-89511904D02*
X113292914Y-89464285D01*
X113292914Y-89464285D02*
X113483390Y-89416666D01*
X113483390Y-89416666D02*
X113626247Y-89416666D01*
X113626247Y-89416666D02*
X113816723Y-89464285D01*
X113816723Y-89464285D02*
X113911961Y-89511904D01*
X113911961Y-89511904D02*
X114007200Y-89607142D01*
X114007200Y-89607142D02*
X114054819Y-89749999D01*
X114054819Y-89749999D02*
X114054819Y-89988094D01*
X113150057Y-89035713D02*
X113102438Y-88988094D01*
X113102438Y-88988094D02*
X113054819Y-88892856D01*
X113054819Y-88892856D02*
X113054819Y-88654761D01*
X113054819Y-88654761D02*
X113102438Y-88559523D01*
X113102438Y-88559523D02*
X113150057Y-88511904D01*
X113150057Y-88511904D02*
X113245295Y-88464285D01*
X113245295Y-88464285D02*
X113340533Y-88464285D01*
X113340533Y-88464285D02*
X113483390Y-88511904D01*
X113483390Y-88511904D02*
X114054819Y-89083332D01*
X114054819Y-89083332D02*
X114054819Y-88464285D01*
X132454819Y-55738094D02*
X131454819Y-55738094D01*
X131454819Y-55738094D02*
X131454819Y-55499999D01*
X131454819Y-55499999D02*
X131502438Y-55357142D01*
X131502438Y-55357142D02*
X131597676Y-55261904D01*
X131597676Y-55261904D02*
X131692914Y-55214285D01*
X131692914Y-55214285D02*
X131883390Y-55166666D01*
X131883390Y-55166666D02*
X132026247Y-55166666D01*
X132026247Y-55166666D02*
X132216723Y-55214285D01*
X132216723Y-55214285D02*
X132311961Y-55261904D01*
X132311961Y-55261904D02*
X132407200Y-55357142D01*
X132407200Y-55357142D02*
X132454819Y-55499999D01*
X132454819Y-55499999D02*
X132454819Y-55738094D01*
X132454819Y-54214285D02*
X132454819Y-54785713D01*
X132454819Y-54499999D02*
X131454819Y-54499999D01*
X131454819Y-54499999D02*
X131597676Y-54595237D01*
X131597676Y-54595237D02*
X131692914Y-54690475D01*
X131692914Y-54690475D02*
X131740533Y-54785713D01*
X147402819Y-76861904D02*
X147402819Y-76290476D01*
X148402819Y-76576190D02*
X147402819Y-76576190D01*
X148402819Y-75957142D02*
X147402819Y-75957142D01*
X147402819Y-75957142D02*
X147402819Y-75576190D01*
X147402819Y-75576190D02*
X147450438Y-75480952D01*
X147450438Y-75480952D02*
X147498057Y-75433333D01*
X147498057Y-75433333D02*
X147593295Y-75385714D01*
X147593295Y-75385714D02*
X147736152Y-75385714D01*
X147736152Y-75385714D02*
X147831390Y-75433333D01*
X147831390Y-75433333D02*
X147879009Y-75480952D01*
X147879009Y-75480952D02*
X147926628Y-75576190D01*
X147926628Y-75576190D02*
X147926628Y-75957142D01*
X147402819Y-74528571D02*
X147402819Y-74719047D01*
X147402819Y-74719047D02*
X147450438Y-74814285D01*
X147450438Y-74814285D02*
X147498057Y-74861904D01*
X147498057Y-74861904D02*
X147640914Y-74957142D01*
X147640914Y-74957142D02*
X147831390Y-75004761D01*
X147831390Y-75004761D02*
X148212342Y-75004761D01*
X148212342Y-75004761D02*
X148307580Y-74957142D01*
X148307580Y-74957142D02*
X148355200Y-74909523D01*
X148355200Y-74909523D02*
X148402819Y-74814285D01*
X148402819Y-74814285D02*
X148402819Y-74623809D01*
X148402819Y-74623809D02*
X148355200Y-74528571D01*
X148355200Y-74528571D02*
X148307580Y-74480952D01*
X148307580Y-74480952D02*
X148212342Y-74433333D01*
X148212342Y-74433333D02*
X147974247Y-74433333D01*
X147974247Y-74433333D02*
X147879009Y-74480952D01*
X147879009Y-74480952D02*
X147831390Y-74528571D01*
X147831390Y-74528571D02*
X147783771Y-74623809D01*
X147783771Y-74623809D02*
X147783771Y-74814285D01*
X147783771Y-74814285D02*
X147831390Y-74909523D01*
X147831390Y-74909523D02*
X147879009Y-74957142D01*
X147879009Y-74957142D02*
X147974247Y-75004761D01*
X128907142Y-92304819D02*
X128573809Y-91828628D01*
X128335714Y-92304819D02*
X128335714Y-91304819D01*
X128335714Y-91304819D02*
X128716666Y-91304819D01*
X128716666Y-91304819D02*
X128811904Y-91352438D01*
X128811904Y-91352438D02*
X128859523Y-91400057D01*
X128859523Y-91400057D02*
X128907142Y-91495295D01*
X128907142Y-91495295D02*
X128907142Y-91638152D01*
X128907142Y-91638152D02*
X128859523Y-91733390D01*
X128859523Y-91733390D02*
X128811904Y-91781009D01*
X128811904Y-91781009D02*
X128716666Y-91828628D01*
X128716666Y-91828628D02*
X128335714Y-91828628D01*
X129859523Y-92304819D02*
X129288095Y-92304819D01*
X129573809Y-92304819D02*
X129573809Y-91304819D01*
X129573809Y-91304819D02*
X129478571Y-91447676D01*
X129478571Y-91447676D02*
X129383333Y-91542914D01*
X129383333Y-91542914D02*
X129288095Y-91590533D01*
X130240476Y-91400057D02*
X130288095Y-91352438D01*
X130288095Y-91352438D02*
X130383333Y-91304819D01*
X130383333Y-91304819D02*
X130621428Y-91304819D01*
X130621428Y-91304819D02*
X130716666Y-91352438D01*
X130716666Y-91352438D02*
X130764285Y-91400057D01*
X130764285Y-91400057D02*
X130811904Y-91495295D01*
X130811904Y-91495295D02*
X130811904Y-91590533D01*
X130811904Y-91590533D02*
X130764285Y-91733390D01*
X130764285Y-91733390D02*
X130192857Y-92304819D01*
X130192857Y-92304819D02*
X130811904Y-92304819D01*
X132454819Y-59738094D02*
X131454819Y-59738094D01*
X131454819Y-59738094D02*
X131454819Y-59499999D01*
X131454819Y-59499999D02*
X131502438Y-59357142D01*
X131502438Y-59357142D02*
X131597676Y-59261904D01*
X131597676Y-59261904D02*
X131692914Y-59214285D01*
X131692914Y-59214285D02*
X131883390Y-59166666D01*
X131883390Y-59166666D02*
X132026247Y-59166666D01*
X132026247Y-59166666D02*
X132216723Y-59214285D01*
X132216723Y-59214285D02*
X132311961Y-59261904D01*
X132311961Y-59261904D02*
X132407200Y-59357142D01*
X132407200Y-59357142D02*
X132454819Y-59499999D01*
X132454819Y-59499999D02*
X132454819Y-59738094D01*
X131788152Y-58309523D02*
X132454819Y-58309523D01*
X131407200Y-58547618D02*
X132121485Y-58785713D01*
X132121485Y-58785713D02*
X132121485Y-58166666D01*
X147456819Y-79661904D02*
X147456819Y-79090476D01*
X148456819Y-79376190D02*
X147456819Y-79376190D01*
X148456819Y-78757142D02*
X147456819Y-78757142D01*
X147456819Y-78757142D02*
X147456819Y-78376190D01*
X147456819Y-78376190D02*
X147504438Y-78280952D01*
X147504438Y-78280952D02*
X147552057Y-78233333D01*
X147552057Y-78233333D02*
X147647295Y-78185714D01*
X147647295Y-78185714D02*
X147790152Y-78185714D01*
X147790152Y-78185714D02*
X147885390Y-78233333D01*
X147885390Y-78233333D02*
X147933009Y-78280952D01*
X147933009Y-78280952D02*
X147980628Y-78376190D01*
X147980628Y-78376190D02*
X147980628Y-78757142D01*
X147456819Y-77280952D02*
X147456819Y-77757142D01*
X147456819Y-77757142D02*
X147933009Y-77804761D01*
X147933009Y-77804761D02*
X147885390Y-77757142D01*
X147885390Y-77757142D02*
X147837771Y-77661904D01*
X147837771Y-77661904D02*
X147837771Y-77423809D01*
X147837771Y-77423809D02*
X147885390Y-77328571D01*
X147885390Y-77328571D02*
X147933009Y-77280952D01*
X147933009Y-77280952D02*
X148028247Y-77233333D01*
X148028247Y-77233333D02*
X148266342Y-77233333D01*
X148266342Y-77233333D02*
X148361580Y-77280952D01*
X148361580Y-77280952D02*
X148409200Y-77328571D01*
X148409200Y-77328571D02*
X148456819Y-77423809D01*
X148456819Y-77423809D02*
X148456819Y-77661904D01*
X148456819Y-77661904D02*
X148409200Y-77757142D01*
X148409200Y-77757142D02*
X148361580Y-77804761D01*
X143338095Y-56806819D02*
X143909523Y-56806819D01*
X143623809Y-57806819D02*
X143623809Y-56806819D01*
X144242857Y-57806819D02*
X144242857Y-56806819D01*
X144242857Y-56806819D02*
X144623809Y-56806819D01*
X144623809Y-56806819D02*
X144719047Y-56854438D01*
X144719047Y-56854438D02*
X144766666Y-56902057D01*
X144766666Y-56902057D02*
X144814285Y-56997295D01*
X144814285Y-56997295D02*
X144814285Y-57140152D01*
X144814285Y-57140152D02*
X144766666Y-57235390D01*
X144766666Y-57235390D02*
X144719047Y-57283009D01*
X144719047Y-57283009D02*
X144623809Y-57330628D01*
X144623809Y-57330628D02*
X144242857Y-57330628D01*
X145147619Y-56806819D02*
X145766666Y-56806819D01*
X145766666Y-56806819D02*
X145433333Y-57187771D01*
X145433333Y-57187771D02*
X145576190Y-57187771D01*
X145576190Y-57187771D02*
X145671428Y-57235390D01*
X145671428Y-57235390D02*
X145719047Y-57283009D01*
X145719047Y-57283009D02*
X145766666Y-57378247D01*
X145766666Y-57378247D02*
X145766666Y-57616342D01*
X145766666Y-57616342D02*
X145719047Y-57711580D01*
X145719047Y-57711580D02*
X145671428Y-57759200D01*
X145671428Y-57759200D02*
X145576190Y-57806819D01*
X145576190Y-57806819D02*
X145290476Y-57806819D01*
X145290476Y-57806819D02*
X145195238Y-57759200D01*
X145195238Y-57759200D02*
X145147619Y-57711580D01*
D12*
X126575312Y-78277180D02*
X126527693Y-78324800D01*
X126527693Y-78324800D02*
X126384836Y-78372419D01*
X126384836Y-78372419D02*
X126289598Y-78372419D01*
X126289598Y-78372419D02*
X126146741Y-78324800D01*
X126146741Y-78324800D02*
X126051503Y-78229561D01*
X126051503Y-78229561D02*
X126003884Y-78134323D01*
X126003884Y-78134323D02*
X125956265Y-77943847D01*
X125956265Y-77943847D02*
X125956265Y-77800990D01*
X125956265Y-77800990D02*
X126003884Y-77610514D01*
X126003884Y-77610514D02*
X126051503Y-77515276D01*
X126051503Y-77515276D02*
X126146741Y-77420038D01*
X126146741Y-77420038D02*
X126289598Y-77372419D01*
X126289598Y-77372419D02*
X126384836Y-77372419D01*
X126384836Y-77372419D02*
X126527693Y-77420038D01*
X126527693Y-77420038D02*
X126575312Y-77467657D01*
X127432455Y-78372419D02*
X127432455Y-77848609D01*
X127432455Y-77848609D02*
X127384836Y-77753371D01*
X127384836Y-77753371D02*
X127289598Y-77705752D01*
X127289598Y-77705752D02*
X127099122Y-77705752D01*
X127099122Y-77705752D02*
X127003884Y-77753371D01*
X127432455Y-78324800D02*
X127337217Y-78372419D01*
X127337217Y-78372419D02*
X127099122Y-78372419D01*
X127099122Y-78372419D02*
X127003884Y-78324800D01*
X127003884Y-78324800D02*
X126956265Y-78229561D01*
X126956265Y-78229561D02*
X126956265Y-78134323D01*
X126956265Y-78134323D02*
X127003884Y-78039085D01*
X127003884Y-78039085D02*
X127099122Y-77991466D01*
X127099122Y-77991466D02*
X127337217Y-77991466D01*
X127337217Y-77991466D02*
X127432455Y-77943847D01*
X127813408Y-77705752D02*
X128051503Y-78372419D01*
X128051503Y-78372419D02*
X128289598Y-77705752D01*
X128813408Y-78372419D02*
X128718170Y-78324800D01*
X128718170Y-78324800D02*
X128670551Y-78229561D01*
X128670551Y-78229561D02*
X128670551Y-77372419D01*
X129194361Y-78372419D02*
X129194361Y-77705752D01*
X129194361Y-77372419D02*
X129146742Y-77420038D01*
X129146742Y-77420038D02*
X129194361Y-77467657D01*
X129194361Y-77467657D02*
X129241980Y-77420038D01*
X129241980Y-77420038D02*
X129194361Y-77372419D01*
X129194361Y-77372419D02*
X129194361Y-77467657D01*
X129432456Y-78467657D02*
X130194360Y-78467657D01*
X131003884Y-78277180D02*
X130956265Y-78324800D01*
X130956265Y-78324800D02*
X130813408Y-78372419D01*
X130813408Y-78372419D02*
X130718170Y-78372419D01*
X130718170Y-78372419D02*
X130575313Y-78324800D01*
X130575313Y-78324800D02*
X130480075Y-78229561D01*
X130480075Y-78229561D02*
X130432456Y-78134323D01*
X130432456Y-78134323D02*
X130384837Y-77943847D01*
X130384837Y-77943847D02*
X130384837Y-77800990D01*
X130384837Y-77800990D02*
X130432456Y-77610514D01*
X130432456Y-77610514D02*
X130480075Y-77515276D01*
X130480075Y-77515276D02*
X130575313Y-77420038D01*
X130575313Y-77420038D02*
X130718170Y-77372419D01*
X130718170Y-77372419D02*
X130813408Y-77372419D01*
X130813408Y-77372419D02*
X130956265Y-77420038D01*
X130956265Y-77420038D02*
X131003884Y-77467657D01*
X131956265Y-78372419D02*
X131384837Y-78372419D01*
X131670551Y-78372419D02*
X131670551Y-77372419D01*
X131670551Y-77372419D02*
X131575313Y-77515276D01*
X131575313Y-77515276D02*
X131480075Y-77610514D01*
X131480075Y-77610514D02*
X131384837Y-77658133D01*
X132813408Y-77372419D02*
X132622932Y-77372419D01*
X132622932Y-77372419D02*
X132527694Y-77420038D01*
X132527694Y-77420038D02*
X132480075Y-77467657D01*
X132480075Y-77467657D02*
X132384837Y-77610514D01*
X132384837Y-77610514D02*
X132337218Y-77800990D01*
X132337218Y-77800990D02*
X132337218Y-78181942D01*
X132337218Y-78181942D02*
X132384837Y-78277180D01*
X132384837Y-78277180D02*
X132432456Y-78324800D01*
X132432456Y-78324800D02*
X132527694Y-78372419D01*
X132527694Y-78372419D02*
X132718170Y-78372419D01*
X132718170Y-78372419D02*
X132813408Y-78324800D01*
X132813408Y-78324800D02*
X132861027Y-78277180D01*
X132861027Y-78277180D02*
X132908646Y-78181942D01*
X132908646Y-78181942D02*
X132908646Y-77943847D01*
X132908646Y-77943847D02*
X132861027Y-77848609D01*
X132861027Y-77848609D02*
X132813408Y-77800990D01*
X132813408Y-77800990D02*
X132718170Y-77753371D01*
X132718170Y-77753371D02*
X132527694Y-77753371D01*
X132527694Y-77753371D02*
X132432456Y-77800990D01*
X132432456Y-77800990D02*
X132384837Y-77848609D01*
X132384837Y-77848609D02*
X132337218Y-77943847D01*
X134003884Y-78467657D02*
X133908646Y-78420038D01*
X133908646Y-78420038D02*
X133813408Y-78324800D01*
X133813408Y-78324800D02*
X133670551Y-78181942D01*
X133670551Y-78181942D02*
X133575313Y-78134323D01*
X133575313Y-78134323D02*
X133480075Y-78134323D01*
X133527694Y-78372419D02*
X133432456Y-78324800D01*
X133432456Y-78324800D02*
X133337218Y-78229561D01*
X133337218Y-78229561D02*
X133289599Y-78039085D01*
X133289599Y-78039085D02*
X133289599Y-77705752D01*
X133289599Y-77705752D02*
X133337218Y-77515276D01*
X133337218Y-77515276D02*
X133432456Y-77420038D01*
X133432456Y-77420038D02*
X133527694Y-77372419D01*
X133527694Y-77372419D02*
X133718170Y-77372419D01*
X133718170Y-77372419D02*
X133813408Y-77420038D01*
X133813408Y-77420038D02*
X133908646Y-77515276D01*
X133908646Y-77515276D02*
X133956265Y-77705752D01*
X133956265Y-77705752D02*
X133956265Y-78039085D01*
X133956265Y-78039085D02*
X133908646Y-78229561D01*
X133908646Y-78229561D02*
X133813408Y-78324800D01*
X133813408Y-78324800D02*
X133718170Y-78372419D01*
X133718170Y-78372419D02*
X133527694Y-78372419D01*
X134337218Y-78324800D02*
X134480075Y-78372419D01*
X134480075Y-78372419D02*
X134718170Y-78372419D01*
X134718170Y-78372419D02*
X134813408Y-78324800D01*
X134813408Y-78324800D02*
X134861027Y-78277180D01*
X134861027Y-78277180D02*
X134908646Y-78181942D01*
X134908646Y-78181942D02*
X134908646Y-78086704D01*
X134908646Y-78086704D02*
X134861027Y-77991466D01*
X134861027Y-77991466D02*
X134813408Y-77943847D01*
X134813408Y-77943847D02*
X134718170Y-77896228D01*
X134718170Y-77896228D02*
X134527694Y-77848609D01*
X134527694Y-77848609D02*
X134432456Y-77800990D01*
X134432456Y-77800990D02*
X134384837Y-77753371D01*
X134384837Y-77753371D02*
X134337218Y-77658133D01*
X134337218Y-77658133D02*
X134337218Y-77562895D01*
X134337218Y-77562895D02*
X134384837Y-77467657D01*
X134384837Y-77467657D02*
X134432456Y-77420038D01*
X134432456Y-77420038D02*
X134527694Y-77372419D01*
X134527694Y-77372419D02*
X134765789Y-77372419D01*
X134765789Y-77372419D02*
X134908646Y-77420038D01*
D11*
X111842380Y-92654819D02*
X111842380Y-93369104D01*
X111842380Y-93369104D02*
X111794761Y-93511961D01*
X111794761Y-93511961D02*
X111699523Y-93607200D01*
X111699523Y-93607200D02*
X111556666Y-93654819D01*
X111556666Y-93654819D02*
X111461428Y-93654819D01*
X112080476Y-93750057D02*
X112842380Y-93750057D01*
X113080476Y-92654819D02*
X113080476Y-93464342D01*
X113080476Y-93464342D02*
X113128095Y-93559580D01*
X113128095Y-93559580D02*
X113175714Y-93607200D01*
X113175714Y-93607200D02*
X113270952Y-93654819D01*
X113270952Y-93654819D02*
X113461428Y-93654819D01*
X113461428Y-93654819D02*
X113556666Y-93607200D01*
X113556666Y-93607200D02*
X113604285Y-93559580D01*
X113604285Y-93559580D02*
X113651904Y-93464342D01*
X113651904Y-93464342D02*
X113651904Y-92654819D01*
X114080476Y-93369104D02*
X114556666Y-93369104D01*
X113985238Y-93654819D02*
X114318571Y-92654819D01*
X114318571Y-92654819D02*
X114651904Y-93654819D01*
X115556666Y-93654819D02*
X115223333Y-93178628D01*
X114985238Y-93654819D02*
X114985238Y-92654819D01*
X114985238Y-92654819D02*
X115366190Y-92654819D01*
X115366190Y-92654819D02*
X115461428Y-92702438D01*
X115461428Y-92702438D02*
X115509047Y-92750057D01*
X115509047Y-92750057D02*
X115556666Y-92845295D01*
X115556666Y-92845295D02*
X115556666Y-92988152D01*
X115556666Y-92988152D02*
X115509047Y-93083390D01*
X115509047Y-93083390D02*
X115461428Y-93131009D01*
X115461428Y-93131009D02*
X115366190Y-93178628D01*
X115366190Y-93178628D02*
X114985238Y-93178628D01*
X115842381Y-92654819D02*
X116413809Y-92654819D01*
X116128095Y-93654819D02*
X116128095Y-92654819D01*
X117270952Y-93654819D02*
X116699524Y-93654819D01*
X116985238Y-93654819D02*
X116985238Y-92654819D01*
X116985238Y-92654819D02*
X116890000Y-92797676D01*
X116890000Y-92797676D02*
X116794762Y-92892914D01*
X116794762Y-92892914D02*
X116699524Y-92940533D01*
X149334580Y-68141666D02*
X149382200Y-68189285D01*
X149382200Y-68189285D02*
X149429819Y-68332142D01*
X149429819Y-68332142D02*
X149429819Y-68427380D01*
X149429819Y-68427380D02*
X149382200Y-68570237D01*
X149382200Y-68570237D02*
X149286961Y-68665475D01*
X149286961Y-68665475D02*
X149191723Y-68713094D01*
X149191723Y-68713094D02*
X149001247Y-68760713D01*
X149001247Y-68760713D02*
X148858390Y-68760713D01*
X148858390Y-68760713D02*
X148667914Y-68713094D01*
X148667914Y-68713094D02*
X148572676Y-68665475D01*
X148572676Y-68665475D02*
X148477438Y-68570237D01*
X148477438Y-68570237D02*
X148429819Y-68427380D01*
X148429819Y-68427380D02*
X148429819Y-68332142D01*
X148429819Y-68332142D02*
X148477438Y-68189285D01*
X148477438Y-68189285D02*
X148525057Y-68141666D01*
X149429819Y-67189285D02*
X149429819Y-67760713D01*
X149429819Y-67474999D02*
X148429819Y-67474999D01*
X148429819Y-67474999D02*
X148572676Y-67570237D01*
X148572676Y-67570237D02*
X148667914Y-67665475D01*
X148667914Y-67665475D02*
X148715533Y-67760713D01*
X123438095Y-93391819D02*
X124009523Y-93391819D01*
X123723809Y-94391819D02*
X123723809Y-93391819D01*
X124342857Y-94391819D02*
X124342857Y-93391819D01*
X124342857Y-93391819D02*
X124723809Y-93391819D01*
X124723809Y-93391819D02*
X124819047Y-93439438D01*
X124819047Y-93439438D02*
X124866666Y-93487057D01*
X124866666Y-93487057D02*
X124914285Y-93582295D01*
X124914285Y-93582295D02*
X124914285Y-93725152D01*
X124914285Y-93725152D02*
X124866666Y-93820390D01*
X124866666Y-93820390D02*
X124819047Y-93868009D01*
X124819047Y-93868009D02*
X124723809Y-93915628D01*
X124723809Y-93915628D02*
X124342857Y-93915628D01*
X125866666Y-94391819D02*
X125295238Y-94391819D01*
X125580952Y-94391819D02*
X125580952Y-93391819D01*
X125580952Y-93391819D02*
X125485714Y-93534676D01*
X125485714Y-93534676D02*
X125390476Y-93629914D01*
X125390476Y-93629914D02*
X125295238Y-93677533D01*
D13*
%TO.C,R11*%
X122870000Y-91696359D02*
X122870000Y-92003641D01*
X123630000Y-91696359D02*
X123630000Y-92003641D01*
%TO.C,C10*%
X132990000Y-60159420D02*
X132990000Y-60440580D01*
X134010000Y-60159420D02*
X134010000Y-60440580D01*
%TO.C,R10*%
X114970000Y-91296359D02*
X114970000Y-91603641D01*
X115730000Y-91296359D02*
X115730000Y-91603641D01*
%TO.C,C6*%
X140692164Y-64890000D02*
X140907836Y-64890000D01*
X140692164Y-65610000D02*
X140907836Y-65610000D01*
%TO.C,R2*%
X146420000Y-81096359D02*
X146420000Y-81403641D01*
X147180000Y-81096359D02*
X147180000Y-81403641D01*
%TO.C,C9*%
X146142164Y-90190000D02*
X146357836Y-90190000D01*
X146142164Y-90910000D02*
X146357836Y-90910000D01*
%TO.C,J1*%
X136245000Y-56780000D02*
X136245000Y-55400000D01*
X137625000Y-56780000D02*
X136245000Y-56780000D01*
X138895000Y-54020000D02*
X141545000Y-54020000D01*
X138895000Y-56780000D02*
X138895000Y-54020000D01*
X138895000Y-56780000D02*
X141545000Y-56780000D01*
X141545000Y-56780000D02*
X141545000Y-54020000D01*
%TO.C,J2*%
X126630000Y-94320000D02*
X126630000Y-97080000D01*
X129280000Y-94320000D02*
X126630000Y-94320000D01*
X129280000Y-94320000D02*
X129280000Y-97080000D01*
X129280000Y-97080000D02*
X126630000Y-97080000D01*
X130550000Y-94320000D02*
X131930000Y-94320000D01*
X131930000Y-94320000D02*
X131930000Y-95700000D01*
%TO.C,C7*%
X142315000Y-60361252D02*
X142315000Y-59838748D01*
X143785000Y-60361252D02*
X143785000Y-59838748D01*
%TO.C,R4*%
X138553641Y-59870000D02*
X138246359Y-59870000D01*
X138553641Y-60630000D02*
X138246359Y-60630000D01*
%TO.C,C4*%
X145892164Y-72740000D02*
X146107836Y-72740000D01*
X145892164Y-73460000D02*
X146107836Y-73460000D01*
%TO.C,U3*%
X138540000Y-61140000D02*
X140360000Y-61140000D01*
X138540000Y-61190000D02*
X138540000Y-61140000D01*
X138540000Y-64260000D02*
X138540000Y-64210000D01*
X140360000Y-61140000D02*
X140360000Y-61190000D01*
X140360000Y-64210000D02*
X140360000Y-64260000D01*
X140360000Y-64260000D02*
X138540000Y-64260000D01*
X141140000Y-64540000D02*
X140660000Y-64540000D01*
X140900000Y-64210000D01*
X141140000Y-64540000D01*
G36*
X141140000Y-64540000D02*
G01*
X140660000Y-64540000D01*
X140900000Y-64210000D01*
X141140000Y-64540000D01*
G37*
%TO.C,R5*%
X146096359Y-93770000D02*
X146403641Y-93770000D01*
X146096359Y-94530000D02*
X146403641Y-94530000D01*
%TO.C,R1*%
X144870000Y-81146359D02*
X144870000Y-81453641D01*
X145630000Y-81146359D02*
X145630000Y-81453641D01*
%TO.C,L1*%
X143847936Y-62790000D02*
X145052064Y-62790000D01*
X143847936Y-65510000D02*
X145052064Y-65510000D01*
%TO.C,Q1*%
X118890000Y-90290000D02*
X120410000Y-90290000D01*
X118890000Y-90340000D02*
X118890000Y-90290000D01*
X118890000Y-92240000D02*
X118890000Y-91460000D01*
X118890000Y-93410000D02*
X118890000Y-93360000D01*
X120410000Y-90290000D02*
X120410000Y-91290000D01*
X120410000Y-92410000D02*
X120410000Y-93410000D01*
X120410000Y-93410000D02*
X118890000Y-93410000D01*
X118590000Y-91800000D02*
X118110000Y-91800000D01*
X118350000Y-91470000D01*
X118590000Y-91800000D01*
G36*
X118590000Y-91800000D02*
G01*
X118110000Y-91800000D01*
X118350000Y-91470000D01*
X118590000Y-91800000D01*
G37*
%TO.C,R9*%
X127846359Y-64620000D02*
X128153641Y-64620000D01*
X127846359Y-65380000D02*
X128153641Y-65380000D01*
%TO.C,R7*%
X127846359Y-56620000D02*
X128153641Y-56620000D01*
X127846359Y-57380000D02*
X128153641Y-57380000D01*
%TO.C,C5*%
X135465000Y-63961252D02*
X135465000Y-63438748D01*
X136935000Y-63961252D02*
X136935000Y-63438748D01*
%TO.C,C2*%
X145892164Y-69690000D02*
X146107836Y-69690000D01*
X145892164Y-70410000D02*
X146107836Y-70410000D01*
%TO.C,J_RF1*%
X112395000Y-84600000D02*
X112395000Y-81900000D01*
X115115000Y-81850000D02*
X115115000Y-82490000D01*
X115115000Y-84010000D02*
X115745000Y-84010000D01*
X115115000Y-84650000D02*
X115115000Y-84010000D01*
%TO.C,D3*%
X126640000Y-62000000D02*
X126640000Y-64000000D01*
X126640000Y-62000000D02*
X130650000Y-62000000D01*
X126640000Y-64000000D02*
X130650000Y-64000000D01*
%TO.C,TP2*%
X134700000Y-95800000D02*
G75*
G02*
X133300000Y-95800000I-700000J0D01*
G01*
X133300000Y-95800000D02*
G75*
G02*
X134700000Y-95800000I700000J0D01*
G01*
%TO.C,U_UART_LS1*%
X135845000Y-91715000D02*
X135910000Y-91715000D01*
X135845000Y-95835000D02*
X135845000Y-91715000D01*
X135910000Y-95835000D02*
X135845000Y-95835000D01*
X144650000Y-91715000D02*
X144715000Y-91715000D01*
X144715000Y-91715000D02*
X144715000Y-95835000D01*
X144715000Y-95835000D02*
X144650000Y-95835000D01*
X144980000Y-91415000D02*
X144650000Y-91175000D01*
X144980000Y-90935000D01*
X144980000Y-91415000D01*
G36*
X144980000Y-91415000D02*
G01*
X144650000Y-91175000D01*
X144980000Y-90935000D01*
X144980000Y-91415000D01*
G37*
%TO.C,R6*%
X146096359Y-92370000D02*
X146403641Y-92370000D01*
X146096359Y-93130000D02*
X146403641Y-93130000D01*
%TO.C,C8*%
X144890000Y-86842164D02*
X144890000Y-87057836D01*
X145610000Y-86842164D02*
X145610000Y-87057836D01*
%TO.C,R3*%
X140703641Y-59870000D02*
X140396359Y-59870000D01*
X140703641Y-60630000D02*
X140396359Y-60630000D01*
%TO.C,C3*%
X145892164Y-71190000D02*
X146107836Y-71190000D01*
X145892164Y-71910000D02*
X146107836Y-71910000D01*
%TO.C,TP4*%
X148350000Y-55450000D02*
G75*
G02*
X146950000Y-55450000I-700000J0D01*
G01*
X146950000Y-55450000D02*
G75*
G02*
X148350000Y-55450000I700000J0D01*
G01*
%TO.C,R8*%
X127846359Y-60620000D02*
X128153641Y-60620000D01*
X127846359Y-61380000D02*
X128153641Y-61380000D01*
D12*
%TO.C,D2*%
X113550000Y-90440000D02*
G75*
G02*
X113450000Y-90440000I-50000J0D01*
G01*
X113450000Y-90440000D02*
G75*
G02*
X113550000Y-90440000I50000J0D01*
G01*
D13*
%TO.C,D1*%
X126640000Y-54000000D02*
X126640000Y-56000000D01*
X126640000Y-54000000D02*
X130650000Y-54000000D01*
X126640000Y-56000000D02*
X130650000Y-56000000D01*
%TO.C,TP6*%
X146850000Y-75800000D02*
G75*
G02*
X145450000Y-75800000I-700000J0D01*
G01*
X145450000Y-75800000D02*
G75*
G02*
X146850000Y-75800000I700000J0D01*
G01*
%TO.C,J_SIM1*%
X110653500Y-54185500D02*
X111923500Y-54185500D01*
X110653500Y-56979500D02*
X110653500Y-54185500D01*
X110653500Y-56979500D02*
X111098000Y-56979500D01*
X111098000Y-62377000D02*
X111100000Y-59583000D01*
X111100000Y-57932000D02*
X111100000Y-56979500D01*
X111100000Y-65806000D02*
X111100000Y-64028000D01*
X114654000Y-54185500D02*
X117300000Y-54185500D01*
X117300000Y-65806000D02*
X111100000Y-65806000D01*
X119543500Y-54185500D02*
X121639000Y-54185500D01*
X121639000Y-65806000D02*
X119543500Y-65806000D01*
X124877500Y-54185500D02*
X125385500Y-54185500D01*
X125385500Y-65800000D02*
X124877500Y-65800000D01*
X125385500Y-65800000D02*
X125385500Y-54185500D01*
%TO.C,R12*%
X127170000Y-92003641D02*
X127170000Y-91696359D01*
X127930000Y-92003641D02*
X127930000Y-91696359D01*
%TO.C,D4*%
X126640000Y-58000000D02*
X126640000Y-60000000D01*
X126640000Y-58000000D02*
X130650000Y-58000000D01*
X126640000Y-60000000D02*
X130650000Y-60000000D01*
%TO.C,TP5*%
X146800000Y-78500000D02*
G75*
G02*
X145400000Y-78500000I-700000J0D01*
G01*
X145400000Y-78500000D02*
G75*
G02*
X146800000Y-78500000I700000J0D01*
G01*
%TO.C,TP3*%
X145250000Y-55450000D02*
G75*
G02*
X143850000Y-55450000I-700000J0D01*
G01*
X143850000Y-55450000D02*
G75*
G02*
X145250000Y-55450000I700000J0D01*
G01*
D11*
%TO.C,U1*%
X117050000Y-66600000D02*
X117050000Y-68100000D01*
X117050000Y-66600000D02*
X118550000Y-66600000D01*
X117050000Y-89400000D02*
X117050000Y-87900000D01*
X117050000Y-89400000D02*
X118550000Y-89400000D01*
X143850000Y-66600000D02*
X142350000Y-66600000D01*
X143850000Y-66600000D02*
X143850000Y-68100000D01*
X143850000Y-89400000D02*
X142350000Y-89400000D01*
X143850000Y-89400000D02*
X143850000Y-87900000D01*
D12*
X121100000Y-88500000D02*
X120400000Y-88500000D01*
X120750000Y-88000000D01*
X121100000Y-88500000D01*
G36*
X121100000Y-88500000D02*
G01*
X120400000Y-88500000D01*
X120750000Y-88000000D01*
X121100000Y-88500000D01*
G37*
D13*
%TO.C,J_UART1*%
X111700000Y-97080000D02*
X111700000Y-95700000D01*
X113080000Y-97080000D02*
X111700000Y-97080000D01*
X114350000Y-94320000D02*
X122080000Y-94320000D01*
X114350000Y-97080000D02*
X114350000Y-94320000D01*
X114350000Y-97080000D02*
X122080000Y-97080000D01*
X122080000Y-97080000D02*
X122080000Y-94320000D01*
%TO.C,C1*%
X146238748Y-67265000D02*
X146761252Y-67265000D01*
X146238748Y-68735000D02*
X146761252Y-68735000D01*
%TO.C,TP1*%
X125400000Y-95700000D02*
G75*
G02*
X124000000Y-95700000I-700000J0D01*
G01*
X124000000Y-95700000D02*
G75*
G02*
X125400000Y-95700000I700000J0D01*
G01*
%TD*%
M02*
