%TF.GenerationSoftware,KiCad,Pcbnew,9.0.6*%
%TF.CreationDate,2025-12-31T00:22:08+05:30*%
%TF.ProjectId,c16qs-carrier-board,63313671-732d-4636-9172-726965722d62,rev?*%
%TF.SameCoordinates,Original*%
%TF.FileFunction,Legend,Bot*%
%TF.FilePolarity,Positive*%
%FSLAX46Y46*%
G04 Gerber Fmt 4.6, Leading zero omitted, Abs format (unit mm)*
G04 Created by KiCad (PCBNEW 9.0.6) date 2025-12-31 00:22:08*
%MOMM*%
%LPD*%
G01*
G04 APERTURE LIST*
%ADD10C,0.150000*%
G04 APERTURE END LIST*
D10*
X135266667Y-85764636D02*
X135314286Y-85812256D01*
X135314286Y-85812256D02*
X135457143Y-85859875D01*
X135457143Y-85859875D02*
X135552381Y-85859875D01*
X135552381Y-85859875D02*
X135695238Y-85812256D01*
X135695238Y-85812256D02*
X135790476Y-85717017D01*
X135790476Y-85717017D02*
X135838095Y-85621779D01*
X135838095Y-85621779D02*
X135885714Y-85431303D01*
X135885714Y-85431303D02*
X135885714Y-85288446D01*
X135885714Y-85288446D02*
X135838095Y-85097970D01*
X135838095Y-85097970D02*
X135790476Y-85002732D01*
X135790476Y-85002732D02*
X135695238Y-84907494D01*
X135695238Y-84907494D02*
X135552381Y-84859875D01*
X135552381Y-84859875D02*
X135457143Y-84859875D01*
X135457143Y-84859875D02*
X135314286Y-84907494D01*
X135314286Y-84907494D02*
X135266667Y-84955113D01*
X134314286Y-85859875D02*
X134885714Y-85859875D01*
X134600000Y-85859875D02*
X134600000Y-84859875D01*
X134600000Y-84859875D02*
X134695238Y-85002732D01*
X134695238Y-85002732D02*
X134790476Y-85097970D01*
X134790476Y-85097970D02*
X134885714Y-85145589D01*
X133457143Y-84859875D02*
X133647619Y-84859875D01*
X133647619Y-84859875D02*
X133742857Y-84907494D01*
X133742857Y-84907494D02*
X133790476Y-84955113D01*
X133790476Y-84955113D02*
X133885714Y-85097970D01*
X133885714Y-85097970D02*
X133933333Y-85288446D01*
X133933333Y-85288446D02*
X133933333Y-85669398D01*
X133933333Y-85669398D02*
X133885714Y-85764636D01*
X133885714Y-85764636D02*
X133838095Y-85812256D01*
X133838095Y-85812256D02*
X133742857Y-85859875D01*
X133742857Y-85859875D02*
X133552381Y-85859875D01*
X133552381Y-85859875D02*
X133457143Y-85812256D01*
X133457143Y-85812256D02*
X133409524Y-85764636D01*
X133409524Y-85764636D02*
X133361905Y-85669398D01*
X133361905Y-85669398D02*
X133361905Y-85431303D01*
X133361905Y-85431303D02*
X133409524Y-85336065D01*
X133409524Y-85336065D02*
X133457143Y-85288446D01*
X133457143Y-85288446D02*
X133552381Y-85240827D01*
X133552381Y-85240827D02*
X133742857Y-85240827D01*
X133742857Y-85240827D02*
X133838095Y-85288446D01*
X133838095Y-85288446D02*
X133885714Y-85336065D01*
X133885714Y-85336065D02*
X133933333Y-85431303D01*
X132266667Y-85955113D02*
X132361905Y-85907494D01*
X132361905Y-85907494D02*
X132457143Y-85812256D01*
X132457143Y-85812256D02*
X132600000Y-85669398D01*
X132600000Y-85669398D02*
X132695238Y-85621779D01*
X132695238Y-85621779D02*
X132790476Y-85621779D01*
X132742857Y-85859875D02*
X132838095Y-85812256D01*
X132838095Y-85812256D02*
X132933333Y-85717017D01*
X132933333Y-85717017D02*
X132980952Y-85526541D01*
X132980952Y-85526541D02*
X132980952Y-85193208D01*
X132980952Y-85193208D02*
X132933333Y-85002732D01*
X132933333Y-85002732D02*
X132838095Y-84907494D01*
X132838095Y-84907494D02*
X132742857Y-84859875D01*
X132742857Y-84859875D02*
X132552381Y-84859875D01*
X132552381Y-84859875D02*
X132457143Y-84907494D01*
X132457143Y-84907494D02*
X132361905Y-85002732D01*
X132361905Y-85002732D02*
X132314286Y-85193208D01*
X132314286Y-85193208D02*
X132314286Y-85526541D01*
X132314286Y-85526541D02*
X132361905Y-85717017D01*
X132361905Y-85717017D02*
X132457143Y-85812256D01*
X132457143Y-85812256D02*
X132552381Y-85859875D01*
X132552381Y-85859875D02*
X132742857Y-85859875D01*
X131933333Y-85812256D02*
X131790476Y-85859875D01*
X131790476Y-85859875D02*
X131552381Y-85859875D01*
X131552381Y-85859875D02*
X131457143Y-85812256D01*
X131457143Y-85812256D02*
X131409524Y-85764636D01*
X131409524Y-85764636D02*
X131361905Y-85669398D01*
X131361905Y-85669398D02*
X131361905Y-85574160D01*
X131361905Y-85574160D02*
X131409524Y-85478922D01*
X131409524Y-85478922D02*
X131457143Y-85431303D01*
X131457143Y-85431303D02*
X131552381Y-85383684D01*
X131552381Y-85383684D02*
X131742857Y-85336065D01*
X131742857Y-85336065D02*
X131838095Y-85288446D01*
X131838095Y-85288446D02*
X131885714Y-85240827D01*
X131885714Y-85240827D02*
X131933333Y-85145589D01*
X131933333Y-85145589D02*
X131933333Y-85050351D01*
X131933333Y-85050351D02*
X131885714Y-84955113D01*
X131885714Y-84955113D02*
X131838095Y-84907494D01*
X131838095Y-84907494D02*
X131742857Y-84859875D01*
X131742857Y-84859875D02*
X131504762Y-84859875D01*
X131504762Y-84859875D02*
X131361905Y-84907494D01*
X130933333Y-85478922D02*
X130171429Y-85478922D01*
X129695238Y-85859875D02*
X129695238Y-84859875D01*
X129695238Y-84859875D02*
X129361905Y-85574160D01*
X129361905Y-85574160D02*
X129028572Y-84859875D01*
X129028572Y-84859875D02*
X129028572Y-85859875D01*
X128123810Y-85193208D02*
X128123810Y-85859875D01*
X128552381Y-85193208D02*
X128552381Y-85717017D01*
X128552381Y-85717017D02*
X128504762Y-85812256D01*
X128504762Y-85812256D02*
X128409524Y-85859875D01*
X128409524Y-85859875D02*
X128266667Y-85859875D01*
X128266667Y-85859875D02*
X128171429Y-85812256D01*
X128171429Y-85812256D02*
X128123810Y-85764636D01*
X127695238Y-85812256D02*
X127600000Y-85859875D01*
X127600000Y-85859875D02*
X127409524Y-85859875D01*
X127409524Y-85859875D02*
X127314286Y-85812256D01*
X127314286Y-85812256D02*
X127266667Y-85717017D01*
X127266667Y-85717017D02*
X127266667Y-85669398D01*
X127266667Y-85669398D02*
X127314286Y-85574160D01*
X127314286Y-85574160D02*
X127409524Y-85526541D01*
X127409524Y-85526541D02*
X127552381Y-85526541D01*
X127552381Y-85526541D02*
X127647619Y-85478922D01*
X127647619Y-85478922D02*
X127695238Y-85383684D01*
X127695238Y-85383684D02*
X127695238Y-85336065D01*
X127695238Y-85336065D02*
X127647619Y-85240827D01*
X127647619Y-85240827D02*
X127552381Y-85193208D01*
X127552381Y-85193208D02*
X127409524Y-85193208D01*
X127409524Y-85193208D02*
X127314286Y-85240827D01*
X126980952Y-85193208D02*
X126600000Y-85193208D01*
X126838095Y-84859875D02*
X126838095Y-85717017D01*
X126838095Y-85717017D02*
X126790476Y-85812256D01*
X126790476Y-85812256D02*
X126695238Y-85859875D01*
X126695238Y-85859875D02*
X126600000Y-85859875D01*
X125838095Y-85859875D02*
X125838095Y-85336065D01*
X125838095Y-85336065D02*
X125885714Y-85240827D01*
X125885714Y-85240827D02*
X125980952Y-85193208D01*
X125980952Y-85193208D02*
X126171428Y-85193208D01*
X126171428Y-85193208D02*
X126266666Y-85240827D01*
X125838095Y-85812256D02*
X125933333Y-85859875D01*
X125933333Y-85859875D02*
X126171428Y-85859875D01*
X126171428Y-85859875D02*
X126266666Y-85812256D01*
X126266666Y-85812256D02*
X126314285Y-85717017D01*
X126314285Y-85717017D02*
X126314285Y-85621779D01*
X126314285Y-85621779D02*
X126266666Y-85526541D01*
X126266666Y-85526541D02*
X126171428Y-85478922D01*
X126171428Y-85478922D02*
X125933333Y-85478922D01*
X125933333Y-85478922D02*
X125838095Y-85431303D01*
X125504761Y-85193208D02*
X125123809Y-85193208D01*
X125361904Y-85859875D02*
X125361904Y-85002732D01*
X125361904Y-85002732D02*
X125314285Y-84907494D01*
X125314285Y-84907494D02*
X125219047Y-84859875D01*
X125219047Y-84859875D02*
X125123809Y-84859875D01*
X124361904Y-85859875D02*
X124361904Y-85336065D01*
X124361904Y-85336065D02*
X124409523Y-85240827D01*
X124409523Y-85240827D02*
X124504761Y-85193208D01*
X124504761Y-85193208D02*
X124695237Y-85193208D01*
X124695237Y-85193208D02*
X124790475Y-85240827D01*
X124361904Y-85812256D02*
X124457142Y-85859875D01*
X124457142Y-85859875D02*
X124695237Y-85859875D01*
X124695237Y-85859875D02*
X124790475Y-85812256D01*
X124790475Y-85812256D02*
X124838094Y-85717017D01*
X124838094Y-85717017D02*
X124838094Y-85621779D01*
X124838094Y-85621779D02*
X124790475Y-85526541D01*
X124790475Y-85526541D02*
X124695237Y-85478922D01*
X124695237Y-85478922D02*
X124457142Y-85478922D01*
X124457142Y-85478922D02*
X124361904Y-85431303D01*
X130909523Y-86469819D02*
X130576190Y-87469819D01*
X130576190Y-87469819D02*
X130242857Y-86469819D01*
X129957142Y-86565057D02*
X129909523Y-86517438D01*
X129909523Y-86517438D02*
X129814285Y-86469819D01*
X129814285Y-86469819D02*
X129576190Y-86469819D01*
X129576190Y-86469819D02*
X129480952Y-86517438D01*
X129480952Y-86517438D02*
X129433333Y-86565057D01*
X129433333Y-86565057D02*
X129385714Y-86660295D01*
X129385714Y-86660295D02*
X129385714Y-86755533D01*
X129385714Y-86755533D02*
X129433333Y-86898390D01*
X129433333Y-86898390D02*
X130004761Y-87469819D01*
X130004761Y-87469819D02*
X129385714Y-87469819D01*
M02*
