%TF.GenerationSoftware,KiCad,Pcbnew,9.0.6*%
%TF.CreationDate,2025-12-31T00:22:08+05:30*%
%TF.ProjectId,c16qs-carrier-board,63313671-732d-4636-9172-726965722d62,rev?*%
%TF.SameCoordinates,Original*%
%TF.FileFunction,Paste,Top*%
%TF.FilePolarity,Positive*%
%FSLAX46Y46*%
G04 Gerber Fmt 4.6, Leading zero omitted, Abs format (unit mm)*
G04 Created by KiCad (PCBNEW 9.0.6) date 2025-12-31 00:22:08*
%MOMM*%
%LPD*%
G01*
G04 APERTURE LIST*
G04 Aperture macros list*
%AMRoundRect*
0 Rectangle with rounded corners*
0 $1 Rounding radius*
0 $2 $3 $4 $5 $6 $7 $8 $9 X,Y pos of 4 corners*
0 Add a 4 corners polygon primitive as box body*
4,1,4,$2,$3,$4,$5,$6,$7,$8,$9,$2,$3,0*
0 Add four circle primitives for the rounded corners*
1,1,$1+$1,$2,$3*
1,1,$1+$1,$4,$5*
1,1,$1+$1,$6,$7*
1,1,$1+$1,$8,$9*
0 Add four rect primitives between the rounded corners*
20,1,$1+$1,$2,$3,$4,$5,0*
20,1,$1+$1,$4,$5,$6,$7,0*
20,1,$1+$1,$6,$7,$8,$9,0*
20,1,$1+$1,$8,$9,$2,$3,0*%
G04 Aperture macros list end*
%ADD10RoundRect,0.135000X-0.185000X0.135000X-0.185000X-0.135000X0.185000X-0.135000X0.185000X0.135000X0*%
%ADD11RoundRect,0.225000X-0.250000X0.225000X-0.250000X-0.225000X0.250000X-0.225000X0.250000X0.225000X0*%
%ADD12RoundRect,0.140000X-0.140000X-0.170000X0.140000X-0.170000X0.140000X0.170000X-0.140000X0.170000X0*%
%ADD13RoundRect,0.250000X0.475000X-0.250000X0.475000X0.250000X-0.475000X0.250000X-0.475000X-0.250000X0*%
%ADD14RoundRect,0.135000X0.135000X0.185000X-0.135000X0.185000X-0.135000X-0.185000X0.135000X-0.185000X0*%
%ADD15RoundRect,0.150000X0.512500X0.150000X-0.512500X0.150000X-0.512500X-0.150000X0.512500X-0.150000X0*%
%ADD16RoundRect,0.135000X-0.135000X-0.185000X0.135000X-0.185000X0.135000X0.185000X-0.135000X0.185000X0*%
%ADD17RoundRect,0.250000X-0.375000X-1.075000X0.375000X-1.075000X0.375000X1.075000X-0.375000X1.075000X0*%
%ADD18RoundRect,0.150000X-0.587500X-0.150000X0.587500X-0.150000X0.587500X0.150000X-0.587500X0.150000X0*%
%ADD19RoundRect,0.250000X0.275000X0.250000X-0.275000X0.250000X-0.275000X-0.250000X0.275000X-0.250000X0*%
%ADD20RoundRect,0.250000X0.850000X0.275000X-0.850000X0.275000X-0.850000X-0.275000X0.850000X-0.275000X0*%
%ADD21RoundRect,0.225000X-0.225000X-0.375000X0.225000X-0.375000X0.225000X0.375000X-0.225000X0.375000X0*%
%ADD22RoundRect,0.150000X-0.150000X0.825000X-0.150000X-0.825000X0.150000X-0.825000X0.150000X0.825000X0*%
%ADD23RoundRect,0.140000X-0.170000X0.140000X-0.170000X-0.140000X0.170000X-0.140000X0.170000X0.140000X0*%
%ADD24RoundRect,0.079500X-0.100500X0.079500X-0.100500X-0.079500X0.100500X-0.079500X0.100500X0.079500X0*%
%ADD25R,0.700000X0.900000*%
%ADD26R,0.700000X0.700000*%
%ADD27R,0.650000X1.200000*%
%ADD28R,2.900000X0.450000*%
%ADD29R,1.900000X0.450000*%
%ADD30R,2.400000X0.450000*%
%ADD31R,0.500000X1.400000*%
%ADD32R,0.600000X0.300000*%
%ADD33R,0.700000X0.750000*%
%ADD34RoundRect,0.135000X0.185000X-0.135000X0.185000X0.135000X-0.185000X0.135000X-0.185000X-0.135000X0*%
%ADD35R,0.700000X1.150000*%
%ADD36R,1.150000X0.700000*%
%ADD37R,1.000000X1.000000*%
%ADD38RoundRect,0.250000X-0.250000X-0.475000X0.250000X-0.475000X0.250000X0.475000X-0.250000X0.475000X0*%
G04 APERTURE END LIST*
D10*
%TO.C,R11*%
X123250000Y-91340000D03*
X123250000Y-92360000D03*
%TD*%
D11*
%TO.C,C10*%
X133500000Y-59525000D03*
X133500000Y-61075000D03*
%TD*%
D10*
%TO.C,R10*%
X115350000Y-90940000D03*
X115350000Y-91960000D03*
%TD*%
D12*
%TO.C,C6*%
X140320000Y-65250000D03*
X141280000Y-65250000D03*
%TD*%
D10*
%TO.C,R2*%
X146800000Y-80740000D03*
X146800000Y-81760000D03*
%TD*%
D12*
%TO.C,C9*%
X145770000Y-90550000D03*
X146730000Y-90550000D03*
%TD*%
D13*
%TO.C,C7*%
X143050000Y-61050000D03*
X143050000Y-59150000D03*
%TD*%
D14*
%TO.C,R4*%
X138910000Y-60250000D03*
X137890000Y-60250000D03*
%TD*%
D12*
%TO.C,C4*%
X145520000Y-73100000D03*
X146480000Y-73100000D03*
%TD*%
D15*
%TO.C,U3*%
X140587500Y-63650000D03*
X140587500Y-62700000D03*
X140587500Y-61750000D03*
X138312500Y-61750000D03*
X138312500Y-62700000D03*
X138312500Y-63650000D03*
%TD*%
D16*
%TO.C,R5*%
X145740000Y-94150000D03*
X146760000Y-94150000D03*
%TD*%
D10*
%TO.C,R1*%
X145250000Y-80790000D03*
X145250000Y-81810000D03*
%TD*%
D17*
%TO.C,L1*%
X143050000Y-64150000D03*
X145850000Y-64150000D03*
%TD*%
D18*
%TO.C,Q1*%
X118712500Y-90900000D03*
X118712500Y-92800000D03*
X120587500Y-91850000D03*
%TD*%
D16*
%TO.C,R9*%
X127490000Y-65000000D03*
X128510000Y-65000000D03*
%TD*%
%TO.C,R7*%
X127490000Y-57000000D03*
X128510000Y-57000000D03*
%TD*%
D13*
%TO.C,C5*%
X136200000Y-64650000D03*
X136200000Y-62750000D03*
%TD*%
D12*
%TO.C,C2*%
X145520000Y-70050000D03*
X146480000Y-70050000D03*
%TD*%
D19*
%TO.C,J_RF1*%
X115280000Y-83250000D03*
D20*
X113755000Y-84725000D03*
X113755000Y-81775000D03*
%TD*%
D21*
%TO.C,D3*%
X127350000Y-63000000D03*
X130650000Y-63000000D03*
%TD*%
D22*
%TO.C,U_UART_LS1*%
X144090000Y-91300000D03*
X142820000Y-91300000D03*
X141550000Y-91300000D03*
X140280000Y-91300000D03*
X139010000Y-91300000D03*
X137740000Y-91300000D03*
X136470000Y-91300000D03*
X136470000Y-96250000D03*
X137740000Y-96250000D03*
X139010000Y-96250000D03*
X140280000Y-96250000D03*
X141550000Y-96250000D03*
X142820000Y-96250000D03*
X144090000Y-96250000D03*
%TD*%
D16*
%TO.C,R6*%
X145740000Y-92750000D03*
X146760000Y-92750000D03*
%TD*%
D23*
%TO.C,C8*%
X145250000Y-86470000D03*
X145250000Y-87430000D03*
%TD*%
D14*
%TO.C,R3*%
X141060000Y-60250000D03*
X140040000Y-60250000D03*
%TD*%
D12*
%TO.C,C3*%
X145520000Y-71550000D03*
X146480000Y-71550000D03*
%TD*%
D16*
%TO.C,R8*%
X127490000Y-61000000D03*
X128510000Y-61000000D03*
%TD*%
D24*
%TO.C,D2*%
X113500000Y-90955000D03*
X113500000Y-91645000D03*
%TD*%
D21*
%TO.C,D1*%
X127350000Y-55000000D03*
X130650000Y-55000000D03*
%TD*%
D25*
%TO.C,J_SIM1*%
X122575000Y-58440000D03*
X122575000Y-60980000D03*
X122575000Y-63520000D03*
X119405000Y-58440000D03*
X119405000Y-60980000D03*
X119405000Y-63520000D03*
D26*
X116075000Y-65250000D03*
D27*
X112400000Y-61530000D03*
D28*
X123275000Y-54425000D03*
D29*
X118425000Y-54425000D03*
D30*
X113275000Y-54425000D03*
D31*
X111325000Y-58780000D03*
D32*
X124425000Y-59760000D03*
X124425000Y-62200000D03*
D31*
X111325000Y-63200000D03*
D33*
X114275000Y-65075000D03*
D28*
X123275000Y-65575000D03*
D29*
X118425000Y-65575000D03*
%TD*%
D34*
%TO.C,R12*%
X127550000Y-92360000D03*
X127550000Y-91340000D03*
%TD*%
D21*
%TO.C,D4*%
X127350000Y-59000000D03*
X130650000Y-59000000D03*
%TD*%
D35*
%TO.C,U1*%
X120750000Y-87180000D03*
X121850000Y-87180000D03*
X122950000Y-87180000D03*
X124050000Y-87180000D03*
X125150000Y-87180000D03*
X126250000Y-87180000D03*
X127350000Y-87180000D03*
X128450000Y-87180000D03*
X129550000Y-87180000D03*
X130650000Y-87180000D03*
X132350000Y-87180000D03*
X133450000Y-87180000D03*
X134550000Y-87180000D03*
X135650000Y-87180000D03*
X136750000Y-87180000D03*
X137850000Y-87180000D03*
X138950000Y-87180000D03*
X140050000Y-87180000D03*
D36*
X141480000Y-85450000D03*
X141480000Y-84350000D03*
X141480000Y-83250000D03*
X141480000Y-82150000D03*
X141480000Y-81050000D03*
X141480000Y-79950000D03*
X141480000Y-77450000D03*
X141480000Y-76350000D03*
X141480000Y-75250000D03*
X141480000Y-74150000D03*
X141480000Y-73050000D03*
X141480000Y-71950000D03*
X141480000Y-70850000D03*
D35*
X140050000Y-68820000D03*
X138950000Y-68820000D03*
X137850000Y-68820000D03*
X136750000Y-68820000D03*
X135650000Y-68820000D03*
X134550000Y-68820000D03*
X133450000Y-68820000D03*
X132350000Y-68820000D03*
X130650000Y-68820000D03*
X129550000Y-68820000D03*
X128450000Y-68820000D03*
X127350000Y-68820000D03*
X126250000Y-68820000D03*
X125150000Y-68820000D03*
X124050000Y-68820000D03*
X122950000Y-68820000D03*
X121850000Y-68820000D03*
X120750000Y-68820000D03*
D36*
X119420000Y-70850000D03*
X119420000Y-71950000D03*
X119420000Y-73050000D03*
X119420000Y-74150000D03*
X119420000Y-75250000D03*
X119420000Y-76350000D03*
X119420000Y-77450000D03*
X119420000Y-79950000D03*
X119420000Y-81050000D03*
X119420000Y-82150000D03*
X119420000Y-83250000D03*
X119420000Y-84350000D03*
X119420000Y-85450000D03*
D37*
X126200000Y-83950000D03*
X127900000Y-83950000D03*
X129600000Y-83950000D03*
X131300000Y-83950000D03*
X133000000Y-83950000D03*
X134700000Y-83950000D03*
X138100000Y-80550000D03*
X138100000Y-78850000D03*
X138100000Y-77150000D03*
X138100000Y-75450000D03*
X134700000Y-72050000D03*
X133000000Y-72050000D03*
X131300000Y-72050000D03*
X129600000Y-72050000D03*
X127900000Y-72050000D03*
X126200000Y-72050000D03*
X122800000Y-75450000D03*
X122800000Y-77150000D03*
X122800000Y-78850000D03*
X122800000Y-80550000D03*
X126200000Y-82250000D03*
X127900000Y-82250000D03*
X129600000Y-82250000D03*
X131300000Y-82250000D03*
X133000000Y-82250000D03*
X134700000Y-82250000D03*
X136400000Y-80550000D03*
X136400000Y-78850000D03*
X136400000Y-77150000D03*
X136400000Y-75450000D03*
X134700000Y-73750000D03*
X133000000Y-73750000D03*
X131300000Y-73750000D03*
X129600000Y-73750000D03*
X127900000Y-73750000D03*
X126200000Y-73750000D03*
X124500000Y-75450000D03*
X124500000Y-77150000D03*
X124500000Y-78850000D03*
X124500000Y-80550000D03*
%TD*%
D38*
%TO.C,C1*%
X145550000Y-68000000D03*
X147450000Y-68000000D03*
%TD*%
M02*
